<?xml version="1.0" encoding="utf-8"?>
<!-- Generator: Adobe Illustrator 21.0.0, SVG Export Plug-In . SVG Version: 6.00 Build 0)  -->
<svg version="1.1" id="Layer_1" xmlns="http://www.w3.org/2000/svg" xmlns:xlink="http://www.w3.org/1999/xlink" x="0px" y="0px"
	 viewBox="0 0 102 256" style="enable-background:new 0 0 102 256;" xml:space="preserve">
<style type="text/css">
	.st0{clip-path:url(#SVGID_2_);fill:#F0E2D8;}
	.st1{clip-path:url(#SVGID_2_);fill:#222426;}
</style>
<g>
	<defs>
		<rect id="SVGID_1_" width="102" height="256"/>
	</defs>
	<clipPath id="SVGID_2_">
		<use xlink:href="#SVGID_1_"  style="overflow:visible;"/>
	</clipPath>
	<path class="st0" d="M128.4,302.5c-15.4-33.4-47-52.6-78.8-68.3c-7.2-3.6-14.5-7-21.6-10.9c-6.2-3.3-12.4-6.4-14.9-11.3
		c-1.5-2.8-1-7.8,0.2-12.3c2.1-8,6.3-14.8,10.5-22c8.5-14.6,16.6-29.5,19.7-46.3c3-16.6,2.7-33-0.7-49.5c-7-34-29.5-65.5-60.4-81.8
		v312.1h149.9C131.2,309,129.9,305.7,128.4,302.5"/>
	<path class="st1" d="M10.9,282.3c2.1-23.7,15.4-44.1,24.3-65.6c16.4-39.7,11.7-86-14-120.7C10.8,82-2.4,70.4-17.6,61.8v2.8
		c32,18.7,54.5,51.6,59.1,88.7c2.9,22.9-1.1,45.5-10.3,66.5c-9.1,20.7-21.5,40.9-22.9,64.1c-0.6,9.6,1.3,19.8,5.7,28.4h2.7
		C11.9,303.3,10,292.4,10.9,282.3"/>
	<path class="st1" d="M71.7,272.7c0-7,2.2-13.4,4.7-19.9c4.7-12.4,7.3-25,8.6-38.2c2.6-25.7,5.6-53.2-1-78.6
		c-5.9-22.8-20.3-43.7-36.6-60.4c-9.6-9.9-20.7-18.4-31.9-26.5C5.1,41.6-5.8,34.5-17.6,29.1v2.7C-8,36.4,1.1,42,9.9,48.1
		c10.8,7.4,21.4,15.4,31,24.4c17.7,16.7,33.5,38.4,40.2,62.1c3.7,13.1,4.5,26.8,4.2,40.4c-0.3,13.4-1.4,26.9-2.8,40.2
		c-0.7,6.9-1.7,13.8-3.3,20.6c-1.6,6.7-4,13-6.4,19.5c-4.4,12.1-4.5,24.1-0.3,36.3c2.6,7.6,6.6,14.6,11.6,20.8h3.1
		c-5.2-6.1-9.4-13-12.1-20.6C72.9,285.7,71.6,279.2,71.7,272.7"/>
	<path class="st1" d="M40.2,293c-0.3-7.8,0.5-15.4,3.1-22.8c2.6-7.3,5.3-14.6,7.9-22c5.2-14.5,10.7-29,13.5-44.3
		c2.5-13.7,3-27.7,1.5-41.5c-2.9-26.7-13-52.3-29.5-73.6C22.3,70.4,3.6,55.6-17.6,45.7v2.6c44.1,21,75.6,64,81.2,113.1
		c1.6,14.3,1.2,28.8-1.5,42.9c-2.9,15.2-8.4,29.8-13.7,44.3c-2.6,7.3-5.4,14.6-7.9,22c-2.3,6.7-3,13.8-2.9,20.9
		c0.2,7.1,1.3,14.5,4.7,20.8h2.8C41.7,306.6,40.4,299.7,40.2,293"/>
</g>
</svg>
