<?xml version="1.0" encoding="utf-8"?>
<!-- Generator: Adobe Illustrator 21.0.0, SVG Export Plug-In . SVG Version: 6.00 Build 0)  -->
<svg version="1.1" id="Layer_1" xmlns="http://www.w3.org/2000/svg" xmlns:xlink="http://www.w3.org/1999/xlink" x="0px" y="0px"
	 viewBox="0 0 612 792" style="enable-background:new 0 0 612 792;" xml:space="preserve">
<style type="text/css">
	.st0{fill:#F48E9C;}
	.st1{fill:#82CECA;}
	.st2{fill:#F16477;}
	.st3{fill:#F06477;}
	.st4{fill:#FEFEFE;}
	.st5{fill:#FCFCFC;}
	.st6{fill:#D7B5A3;}
	.st7{fill:#4FC7E7;}
	.st8{fill:#E4C19F;}
	.st9{fill:#4FC7E6;}
	.st10{fill:#E5CBBC;}
	.st11{fill:#E1E2E3;}
	.st12{fill:#C3C09D;}
	.st13{fill:#A80733;}
	.st14{fill:#F2E1CF;}
	.st15{fill:#E7505F;}
	.st16{fill:#E22737;}
	.st17{fill:#E75261;}
	.st18{fill:#F1E1D1;}
	.st19{fill:#E2E2E3;}
	.st20{fill:#E8687B;}
	.st21{fill:#F1E0CF;}
	.st22{fill:#C3BF9C;}
	.st23{fill:#767069;}
	.st24{fill:#7D1720;}
	.st25{fill:#7F756B;}
	.st26{fill:#EEE2D4;}
	.st27{fill:#F1E4D6;}
	.st28{fill:#E992A1;}
	.st29{fill:#7B7976;}
	.st30{fill:#E2909C;}
	.st31{fill:#86C8C3;}
	.st32{fill:#7F7A79;}
	.st33{fill:#660C1D;}
	.st34{fill:#911C26;}
	.st35{fill:#A60933;}
	.st36{fill:#EDDDCF;}
	.st37{fill:#F6F7F7;}
	.st38{fill:#EFDFD2;}
	.st39{fill:#7C756F;}
	.st40{fill:#6E797D;}
	.st41{fill:#E66577;}
	.st42{fill:#855256;}
	.st43{fill:#8A8A8A;}
	.st44{fill:#7D6060;}
	.st45{fill:#707070;}
	.st46{fill:#777776;}
	.st47{fill:#F9F4EB;}
	.st48{fill:#878583;}
	.st49{fill:#838888;}
	.st50{fill:#EEE3D8;}
	.st51{fill:#81807E;}
	.st52{fill:#2BBBB6;}
	.st53{fill:#6D756C;}
	.st54{fill:#804249;}
	.st55{fill:#88827C;}
	.st56{fill:#787877;}
	.st57{fill:#7A746D;}
	.st58{fill:#A9ABAA;}
	.st59{fill:#7D7A77;}
	.st60{fill:#58686A;}
	.st61{fill:#847C7C;}
	.st62{fill:#7F7A7A;}
	.st63{fill:#808080;}
	.st64{fill:#676767;}
	.st65{fill:#989898;}
	.st66{fill:#817E7E;}
	.st67{fill:#EEDFE1;}
	.st68{fill:#ADA69C;}
	.st69{fill:#854A50;}
	.st70{fill:#56A2B2;}
	.st71{fill:#797879;}
	.st72{fill:#686551;}
	.st73{fill:#848082;}
	.st74{fill:#8E373E;}
	.st75{fill:#B8B8B8;}
	.st76{fill:#E7E7E7;}
	.st77{fill:#F0D9D9;}
	.st78{fill:#ABABAB;}
	.st79{fill:#E2E0DD;}
	.st80{fill:#747364;}
	.st81{fill:#9D9C6F;}
	.st82{fill:#767676;}
	.st83{fill:#CACCCD;}
	.st84{fill:#AAA096;}
	.st85{fill:#E1E0DE;}
	.st86{fill:#777372;}
	.st87{fill:#C4C3C3;}
	.st88{fill:#7E7D7D;}
	.st89{fill:#1B7171;}
	.st90{fill:#7B7A7A;}
	.st91{fill:#9D9394;}
	.st92{fill:#6B777E;}
	.st93{fill:#AAB1B4;}
	.st94{fill:#A6484F;}
	.st95{fill:#646263;}
	.st96{fill:#930D31;}
	.st97{fill:#A2222F;}
	.st98{fill:#BEB9B1;}
	.st99{fill:#8F636A;}
	.st100{fill:#6E655A;}
	.st101{fill:#83694F;}
	.st102{fill:#9F9F9F;}
	.st103{fill:#7D5257;}
	.st104{fill:#948D8B;}
	.st105{fill:#2BB8B4;}
	.st106{fill:#A0817A;}
	.st107{fill:#979998;}
	.st108{fill:#8D8C8C;}
	.st109{fill:#807E7D;}
	.st110{fill:#A4A6A7;}
	.st111{fill:#CBC5C7;}
	.st112{fill:#804147;}
	.st113{fill:#AAA9A9;}
	.st114{fill:#C4CDCB;}
	.st115{fill:#625D57;}
	.st116{fill:#7F8A87;}
	.st117{fill:#B5B5B5;}
	.st118{fill:#AFAEAF;}
	.st119{fill:#706961;}
	.st120{fill:#85827F;}
	.st121{fill:#888383;}
	.st122{fill:#C9E7E6;}
	.st123{fill:#BEDAE0;}
	.st124{fill:#87474E;}
	.st125{fill:#C6C7C7;}
	.st126{fill:#896A6D;}
	.st127{fill:#9C9B96;}
	.st128{fill:#A7A8A7;}
	.st129{fill:#847E7C;}
	.st130{fill:#9E9FA0;}
	.st131{fill:#528B88;}
	.st132{fill:#A28B81;}
	.st133{fill:#A7A8A9;}
	.st134{fill:#4C8C8C;}
	.st135{fill:#AAABAC;}
	.st136{fill:#606060;}
	.st137{fill:#9A9389;}
	.st138{fill:#7D706C;}
	.st139{fill:#8D8687;}
	.st140{fill:#A9ABAC;}
	.st141{fill:#A4ADAD;}
	.st142{fill:#9D9E9F;}
	.st143{fill:#81786E;}
	.st144{fill:#C3C4C7;}
	.st145{fill:#7E7B7A;}
	.st146{fill:#787774;}
	.st147{fill:#C0BFC1;}
	.st148{fill:#53403E;}
	.st149{fill:#717068;}
	.st150{fill:#837E7C;}
	.st151{fill:#67615E;}
	.st152{fill:#E8C9CA;}
	.st153{fill:#C3E4DF;}
	.st154{fill:#605B60;}
	.st155{fill:#807B7C;}
	.st156{fill:#D0A3AC;}
	.st157{fill:#B0DAE2;}
	.st158{fill:#C4C4C4;}
	.st159{fill:#FBFCFC;}
	.st160{fill:#FDFCFC;}
	.st161{fill:#E05566;}
	.st162{fill:#F4E6E7;}
	.st163{fill:#F8F7F7;}
	.st164{fill:#90373D;}
	.st165{fill:#894E51;}
	.st166{fill:#864E50;}
	.st167{fill:#F5E2E4;}
	.st168{fill:#B9858B;}
	.st169{fill:#847C7B;}
	.st170{fill:#8C4C51;}
	.st171{fill:#9B595F;}
	.st172{fill:#EEE1D8;}
	.st173{fill:#75504B;}
	.st174{fill:#886A6C;}
	.st175{fill:#D2B5AE;}
	.st176{fill:#855051;}
	.st177{fill:#EDCCCF;}
	.st178{fill:#B0676D;}
	.st179{fill:#695745;}
	.st180{fill:#BC6A71;}
	.st181{fill:#7F7E77;}
	.st182{fill:#B76D72;}
	.st183{fill:#43A79F;}
	.st184{fill:#0278BF;}
	.st185{fill:#417270;}
	.st186{fill:#376273;}
	.st187{fill:#F1F9F9;}
	.st188{fill:#0B6597;}
	.st189{fill:#063656;}
	.st190{fill:#3D7372;}
	.st191{fill:#D1E7E6;}
	.st192{fill:#5FA7A2;}
	.st193{fill:#C7EAE8;}
	.st194{fill:#E12738;}
	.st195{fill:#F6F1F2;}
	.st196{fill:#DD2A3C;}
	.st197{fill:#E0283A;}
	.st198{fill:#B13C49;}
	.st199{fill:#CF5062;}
	.st200{fill:#78353E;}
	.st201{fill:#822B35;}
	.st202{fill:#E12D44;}
	.st203{fill:#792326;}
	.st204{fill:#C64F5F;}
	.st205{fill:#A23341;}
	.st206{fill:#F6E4E6;}
	.st207{fill:#907478;}
	.st208{fill:#8D2535;}
	.st209{fill:#F6EEED;}
	.st210{fill:#F38E9C;}
	.st211{fill:#EDE0D1;}
	.st212{fill:#D0C4B6;}
	.st213{fill:#F0E1D3;}
	.st214{fill:#87CCC3;}
	.st215{fill:#818181;}
	.st216{fill:#838383;}
	.st217{fill:#9E9C9D;}
	.st218{fill:#C2BFBE;}
	.st219{fill:#797979;}
	.st220{fill:#797974;}
	.st221{fill:#FCFCFA;}
	.st222{fill:#9B634C;}
	.st223{fill:#AD846F;}
	.st224{fill:#F8F3EE;}
	.st225{fill:#7B746D;}
	.st226{fill:#938A84;}
	.st227{fill:#737377;}
	.st228{fill:#E8E0DC;}
	.st229{fill:#F3F2EC;}
	.st230{fill:#ECE0D8;}
	.st231{fill:#9D9A97;}
	.st232{fill:#7F7872;}
	.st233{fill:#31A5D8;}
	.st234{fill:#32A6D7;}
	.st235{fill:#57707B;}
	.st236{fill:#176586;}
	.st237{fill:#166C8F;}
	.st238{fill:#CBE9EF;}
	.st239{fill:#E3F4F3;}
	.st240{fill:#CBE5EC;}
	.st241{fill:#1E7A92;}
	.st242{fill:#369CC5;}
	.st243{fill:#FDFDFD;}
	.st244{fill:#FBFBFA;}
	.st245{fill:#F0E1D1;}
	.st246{fill:#DCE0D6;}
	.st247{fill:#7F7770;}
	.st248{fill:#D5C6B8;}
	.st249{fill:#EDE1D5;}
	.st250{fill:#A18C76;}
	.st251{fill:#705D4B;}
	.st252{fill:#73604C;}
	.st253{fill:#767268;}
	.st254{fill:#866B54;}
	.st255{fill:#644F38;}
	.st256{fill:#F6EEE3;}
	.st257{fill:#6E5B48;}
	.st258{fill:#8C6952;}
	.st259{fill:#C5A487;}
	.st260{fill:#846A4E;}
	.st261{fill:#7C5B3C;}
	.st262{fill:#637E6F;}
	.st263{fill:#E0E2E4;}
	.st264{fill:#2CA5DC;}
	.st265{fill:#2DA5D8;}
	.st266{fill:#196780;}
	.st267{fill:#126080;}
	.st268{fill:#737C80;}
	.st269{fill:#31A3D7;}
	.st270{fill:#21637D;}
	.st271{fill:#2D95B1;}
	.st272{fill:#C1E0E5;}
	.st273{fill:#378AA1;}
	.st274{fill:#B0DAE6;}
	.st275{fill:#2A8DA9;}
	.st276{fill:#90CCDC;}
	.st277{fill:#FAF9F4;}
	.st278{fill:#76716C;}
	.st279{fill:#B6B6B6;}
	.st280{fill:#6F1C33;}
	.st281{fill:#787456;}
	.st282{fill:#6E694F;}
	.st283{fill:#DDDBD0;}
	.st284{fill:#6B684D;}
	.st285{fill:#F8F5F7;}
	.st286{fill:#EADFE3;}
	.st287{fill:#D9CCD1;}
	.st288{fill:#1EA5A2;}
	.st289{fill:#3A4944;}
	.st290{fill:#716A54;}
	.st291{fill:#88B5A7;}
	.st292{fill:#7E3D41;}
	.st293{fill:#EE8A98;}
	.st294{fill:#7A3137;}
	.st295{fill:#EAE0D4;}
	.st296{fill:#426B69;}
	.st297{fill:#DAEBEB;}
	.st298{fill:#465A4C;}
	.st299{fill:#E74E5F;}
	.st300{fill:#F7F9F9;}
	.st301{fill:#D14B59;}
	.st302{fill:#8BB9BD;}
	.st303{fill:#D5818E;}
	.st304{fill:#E1CDCE;}
	.st305{fill:#6B585A;}
	.st306{fill:#E5F5F5;}
	.st307{fill:#579089;}
	.st308{fill:#225D83;}
	.st309{fill:#F2F9FA;}
	.st310{fill:#7CB4A6;}
	.st311{fill:#F0E0D1;}
	.st312{fill:#EADED2;}
	.st313{fill:#7E7973;}
	.st314{fill:#52BEE2;}
	.st315{fill:#DEE0E0;}
	.st316{fill:#646969;}
	.st317{fill:#AEADAE;}
	.st318{fill:#6B5E54;}
	.st319{fill:#6F5747;}
	.st320{fill:#A8BED2;}
	.st321{fill:#B2B1B1;}
	.st322{fill:#656765;}
	.st323{fill:#045A5F;}
	.st324{fill:#93887F;}
	.st325{fill:#53AAA3;}
	.st326{fill:#337976;}
</style>
<g>
	<path class="st0" d="M437.1,458c-3.1,2.2-6.5,2.9-10.2,3c-6.3,0.1-12.6-0.1-18.9,0.3c-2.2,0.2-3.5-1.5-5.8-1.7
		c4.8-0.6,2.4-5.5,4.9-7.5c1.6-5.1,2.8-10.3,5.3-15c2.8-4.5,5.9-8.9,6-14.5c1-2.9,1.2-6.3,4.6-7.7c0.7,0.5,0.9,1.3,0.9,2.3
		c2.1-1.9,3.5-4,4.4-6.5c2.3-6.8,7.4-11.7,11.7-17.1c0.9-1.1,2.3-2.8,3.6-0.2c-1.4,11-2.3,22-4,32.9c-0.7,3.6-1.1,7.3-2,10.9
		c0.5-2.9,1.4-5.8,1.6-8.8c2.1-11.7,2.9-23.5,4.4-35.3c-1.7-2.3,0.2-3.6,1.5-5c1.7-1.8,4.1-2.8,6.1-4.2c4.3-3,4.2-5.1-0.3-7.5
		c-0.6-0.3-1.2-0.5-1.8-0.8c-3.4-2.1-3.6-5-0.6-7.7c1.3-1.2,4.1-1.3,3.3-4.2c0.6-1.2-0.6-1.3-1.1-1.9c-1.6-2.8,3.2-3.7,1.9-6.4
		c-0.7-1-1.7-1.7-2.7-2c-4.6-1.4-7.3-4.5-8.5-9.1c0.7-7.8,0.2-15.6-1.2-23.3c-0.9-1.6-1.9-3.1-3-4.5c-4.4-5.3-4.5-11-2.2-17.1
		c2.1-0.7,2.1,1.1,2.3,2.2c0.4,2.1,0.2,4.3,0.5,6.3c1.6-9-3.1-17.5-2.7-26.8c-1.4,5.3-3.9,9.8-6.6,14.2c-0.4,0.4-0.8,0.6-1.3,0.8
		c-4.9,0.1-9.4-1-13.3-3.9c-0.3-0.4-0.6-0.9-0.7-1.4c-0.6-1.6-0.8-3.3,0.3-4.8c4.3-6,6.1-13.3,10-19.5c5.5-5.4,12.3-8.2,19.8-9.3
		c3.7-1.1,4.3,2.3,6,4.1c2.2,2.4,6.2,0.3,8.2,3.3c5,4.9,10.7,6.1,17.2,3.3c2.3,0,3.2-2.1,4.8-3.1c5.2,1.6,7.6,6.2,10.4,10.2
		c1.5-3,1.4-6.5,3-9.5c3.1-6.3,9.5-6.1,14.8,0.3c2.3,2.7,2.7,6,3.7,9c1.1,3.6,2.1,7.2,3.3,10.8c0.2,2.2-1.5,2.9-3,3.7
		c-4.1-0.5-6.5,2.9-9.8,4.3c-1,0.6-1.8,1.6-3.1,1.7c-0.5-0.2-0.8-0.5-0.9-1.1c-2.3-4.6-1.5-9.5-1-14.3c0-0.7-1,0.2-0.4-0.1
		c0.2,5-0.6,10.1,1.2,14.9c-0.6,0.6-1.3,0.8-2.1,0.6c-0.6,0.1-1.2-1.1-1.3-0.7c-0.3,4.5-2.7,7.8-5.4,11c-1.2,1.4-2.6,2.7-3.5,4.3
		c-4.7,9.1-12.7,9-21.1,7.9c-3.1-0.4-6.2-0.8-9.8-0.6c5,2.4,10.1,3.1,15.2,3.3c7,0.3,10.2,3.2,10.8,10.4c0.3,3.5,0.8,6.9,1.2,10.4
		c0.6,4.5,4.3,7.9,8.9,8.4c1-0.4,1.9-0.2,2.7,0.5c0.4,0.3,0.7,0.7,0.9,1.1c1.4,3.2,4.4,5.3,6.2,8.2c1.9,3.2,4,6.4,3.6,10.5
		c-0.2,0.5-0.4,0.9-0.8,1.2c-0.1,0.1-0.3,0.2-0.4,0.2c-6,0.6-6.6,1.3-3.6,7.1c1.5,2.9,3.1,5.7,4.1,8.8c4.2,5.7,9.2,10.9,13.1,16.8
		c1.7,2.6,3.7,5.1,4.1,8.4c0.1,3.5,0.7,7.1-1,10.3c-2,3.9-5,6.6-9.8,6.5c-3.5-4.9-5.2-10.7-8.1-16c-3.2-6-6.1-12-9.1-18.1
		c-0.2-0.3-0.1-0.7-0.3-0.4c3.1,6.4,6.4,13.1,9.9,19.7c2.1,5,4.9,9.7,6.7,14.9c-0.2,2.4-2.2,2.6-3.9,3.1c-2.6,0.9-5.3,1.6-7.9,2.7
		c-1.6,0.7-3.9,1.4-3.4,3.6c0.4,2,2.6,1.6,4.2,1.6c2.5,0.1,4.9,0,7.4,0.1c1.8,0.1,3.7-0.1,5.1,1.2c-0.3,3.1-3.2,3.1-5.1,3.9
		c-8.5,3.2-17.3,5.5-26.4,5.8c-2.7,0.1-4.8-1.4-6.9-2.8c-4.8-1.9-9.4-4.7-15.1-3.2c-0.4,3.3,4.3,3.7,3.8,6.9
		c-5.6,4.6-11.1,3.8-14.6-2.1c-0.8-1.3-1.7-2.4-2.9-3.3c-1.6-1.1-1.8-4.1-4.8-3.3c-4.6,1.2-3.1,4.2-2.2,7
		C436.8,453.2,437.3,455.6,437.1,458z"/>
	<path class="st1" d="M342.1,365.2c1,9.5,2.1,19,2.9,28.5c0.5,6.1,0.5,12.2-0.9,18.2c-1.1-0.7-2.5,1.2-3.5-0.4
		c-0.7-2.4,0.8-4.1,1.5-6.1c1.9-5.5,0.2-9.6-4.8-12.1c-2-1-3.1-0.4-2.7,1.7c2.4,12.5-5.6,20-14.1,25.9c-7.3,5.1-12.2,11.6-16.7,18.8
		c-1.8,2.8-3,5.9-4.7,8.8c-0.6,1-1.6,2.1-0.7,3.2c1.1,1.3,2.4,0.1,3.6-0.3c1.6-0.5,3.1-1.3,4.4-2.3c3.9-2.7,8.2-3.9,12.8-2.9
		c3,0.6,5.5-0.8,8.2-1.4c0.5,0,0.9,0.2,1.2,0.7c1.3,2.1,0.1,4.4,0.7,6.6c0.1,1-0.3,2-0.4,3c-0.8,2.2,0.1,4.8-2,6.6
		c-2.4,1.3-4.9,0.4-7.2-0.2c-8.3-2-16-1.1-23.2,3.5c-6.2,2.4-12.3,5.3-19.2,3.7c-0.5-0.3-0.9-0.8-1.1-1.3
		c-0.1-14.3-5.4-27.7-6.9-41.6c-1.6-14.3-1.4-28.9,2-43.1c1.4-5.8,2.9-11.6,3.7-17.5c0.5-1.7,0.8-3.5,2-4.9c2-0.9,1.8,1.9,3.3,1.9
		c0.4-0.1,0.8-0.1,1.2-0.2c4.6-2.7,10.4-0.7,14.7-4c2.6-1.2,5.2-1.8,8-2.1c8.2,0.1,16.4-2.1,24.6-0.1c1.4,0.4,3,0.2,4.4,0.8
		c3.7,1.6,3.4-0.7,3.1-3.1c-0.1-0.5-0.1-1.1-0.1-1.6c0.1-0.9,0.4-1.6,1.3-2c3.9,0.8,4.6,3.7,5,7
		C342.9,359.7,341.3,362.3,342.1,365.2z"/>
	<path class="st2" d="M169.4,345.2c0.9,3.6,1.9,7.2,2.8,10.8c0.3,4.7,3.4,8,5.6,11.7c0.8,2.5,0.3,5.3,2,7.6c0.4,1,0.4,2-0.3,2.8
		c-2.4,0.6-2.9,2.3-2.9,4.5c0,4.8,0,9.7,0,14.5c-1.1,7.5-2.6,14.8-5.4,21.9c-2.6,3.9-6.3,6.2-10.6,7.7c-4.1,1.4-5.6,4-4.4,8.4
		c0.7,2.5,1.4,5.1,2.6,7.4c1.2,2.2,2,4.5,1.2,7.1c-1.5,2.1-3.3,3.9-5.6,4.5c2,1.4,3.1-4.6,5.7-1c0.6,5.3-0.2,10.7-0.8,15.9
		c-0.7,6.5-1.1,12.6,2.9,18.1c0.5,3.7,0,7.4-0.5,11.1c-2.6,13.2-6.5,26.1-11,38.8c-0.4,0.8-1,1.4-1.8,1.7c-4.7,1.2-9.2,0.8-13.6-1.3
		c-0.7-0.6-0.9-1.5-1-2.4c-0.1-1.2-0.2-2.4,0.3-3.6c1.4-2.1,1.3-4.4,1.2-6.7c-0.9-14.5,2.2-28.7,3.8-42.9c0.3-2.5,0-5,0.5-7.4
		c1.9-8.7,1.6-17.6,2.9-26.4c0.1-0.6,0.2-1.1,0.3-1.7c2.2-10.9,4.4-21.8,2-33.8c1.4,9.2,1.5,17.6-0.7,25.9c-0.3,1-0.3,2-1.8,1.6
		c-2.3-4.5-2.2-9.5-2.8-14.3c-0.7-5.5-1.8-11-1.3-16.6c0.7-6.3-1.1-12.9,1.4-19.5c2.2,1.7,0.8,3.8,2.4,5.5c-1.8-2.3,0.6-6.1-3.6-6.5
		c-2-0.8-1.4-2.3-1-3.7c0.9-2,1-4.4,2.7-6c2.8-1.6,5.8-2.9,8.5-4.7c0.2-0.3,0.5-0.4,0.8-0.2c-0.4-0.5,0.5-0.4-0.1-0.4
		s0.2-0.1-0.3,0.3c-0.5,0.4-1.1,0.7-1.6,1.1c-8.5,4.3-8.6,4.3-8.6-5.2c0-3.3-0.4-6.6,0.6-9.9c-1,0.1-0.2,0.4-0.2,0.5
		c-1,5.8,0,11.6-0.6,17.4c-1.3,2.3-2.1,0.9-3-0.4c-1.7-8.5-2.5-16.9,0.7-25.2c1.1-3,0.4-5.1-1.6-7.1c0.8-3.5,4.2-1.9,6.2-3.1
		c5.9-0.7,11.9-0.5,17.8-0.1c0.1,0,0.2-0.2,0.2-0.3c0-0.2-0.1-0.3-0.1-0.5c3.9-2.5,7.1-0.5,10.3,1.5
		C169.8,343.6,169.8,344.4,169.4,345.2z"/>
	<path class="st3" d="M106.5,352.1c-0.1-0.3-0.3-0.5-0.4-0.8c0.1-0.9,0.6-1.5,1.4-1.9c6.6-0.9,12.8-3.2,19.2-4.7
		c1.9-0.5,3.9-1.1,5.6,0.4c0.1,7,1.4,13.8,2,20.7c0.3,4.5,0.3,9.4-3.9,12.7c-2,1.1-3.8-0.1-5.7-0.3c0,0-0.1,0.2-0.2,0.4
		c0.3,0.1,0.6,0.3,0.8,0.5c0.1,7.5,6.3,7.8,11.2,9.7c2.8,1.1,2.5,3.6,2.6,5.9c0.3,7.8-0.6,15.6,0.5,23.4c1,9.4,2.5,18.8,3.7,28.2
		c-0.9,9-1.1,18-2.3,26.9c-1.3,9.5-2,19.1-3.4,28.7c-0.3,2.2-0.2,4.7-1.8,6.5c-2.2-0.6-2.6-2.5-2.7-4.3c-0.3-5.5-0.8-10.9,0.8-16.3
		c1.8-6.2,1-11.9-4.5-16.1c-4.2-3.1-5.6-7.7-7-12.3c-0.9-2.7-1.6-5.4-2.2-8.2c-1.5-7.4,1.4-9.8,9.1-7.7c-2.5-1.6-5-0.7-7.3-0.1
		c-1.9,0.5-3.3,0.3-3.7-1.9c-2.4-13.6-5.9-26.9-9.1-40.3c-0.5-2.1-1.3-4.1-2.4-6c-0.5-1-0.5-2.2-0.7-3.3c-0.2-4.7-1.1-9-3-13.4
		c-2.5-5.5-1.2-11.3,0-17c0.3-1.9,1.6-3.5,2.1-5.4l0,0C106.1,354.9,106.5,353.6,106.5,352.1z"/>
	<path class="st4" d="M473.1,505.2c0.3-0.7,0.7-1.4,1-2.1c-0.8-0.9-1-1.9-1.2-3c-0.1-1.7-0.1-3.3,0.3-5c2.1-6.4,2.7-12.9,2.6-19.6
		c-0.2-12.2,3.4-17.4,14.6-22c0.5-0.2,0.8-0.5,1.2-0.8c2.2-1,4.2-2.9,6.9-1.2c0.3,6.7-2.9,12.8-3.6,19.3c-4.2,14.4-2.4,29.4-3.9,44
		c-1.9,18.3-2.9,36.7-8.9,54.3c-6.9,7.7-9.9,16.7-9,26.9c-0.5,3.1-1.3,6.2-0.5,9.4c0.2,1.9,1,3.7,0.4,5.6c-0.9,2.1-1.5,4.7-4.3,4.8
		c-2.8,0.1-3.4-2.7-4.5-4.6c-1-1.9-2.1-3.7-2-6c0-1.2,0.4-2.2,0.7-3.3c4.3-11.1,2.8-22.8,3.7-34.3c0.2-2.8,0.8-5.6,0.6-8.4
		c0.3-5.6,1.5-11.2,1.5-16.8c1.5-5.4,1.5-11.1,1.9-16.6C471,518.7,472.3,512,473.1,505.2z"/>
	<path class="st5" d="M276.2,471c-2.1-0.5-5.4,2.3-5.9,0.2c-0.9-4.1-5.8-6.6-4.2-11.4c1.6-5.1-0.3-9.2-2.2-13.9
		c-2.2-5.8-5.9-4.7-9.9-4.8c-8.2-0.2-14-6.5-15.1-14.5c-1.2-8.6-0.8-16.8,2.7-24.7c0.8-1.7,0.7-3.6,0.1-5.4
		c-0.5-1.3-0.6-2.4,0.2-3.7c5.2-8.5,5.7-17.8,4.4-27.3c-0.4-3-0.3-6.4,2.9-7c4.8-1,4.8-4.7,4.4-7.5c-0.6-4-0.4-7.3,0.6-11.4
		c1-4.2,0-9.1-0.2-13.8c-0.1-3.8,0.1-7.2,4.4-9c2.3-1,2-3.2,0.7-5.1c-1.7-2.5-0.2-3.2,2-3.6c2,2.3,1.4,5.1,1.1,7.6
		c-1,8.9-2,17.8-3,26.7c-1.3,10.5-4,20.7-7.1,30.7c-2.7,12.5-3.9,25.4-7.6,37.7c-1,7.3,0.3,14.1,4.7,20.2c1.1,1.5,2.2,2.9,4.1,3.4
		c1.3,0.3,2.9,0.7,3.8-0.1c1.4-1.2-0.1-2.4-0.8-3.4c-3-4.7-0.5-9.3-0.1-14c2.9-5,3.2-10,0.6-15.2c-1.3-2.6-1-5.2-0.1-7.8
		c1.3-3.6,1.7-7.5,3.1-11c2.7-11.4,5.2-23,10.2-33.7c1.9-3.5,2-7.6,4.2-11c2.9-4.6,2.4-9.9,3.4-14.9c0.4-2.1,0.5-4.3,1.3-6.3
		c1-2.5,2.3-2.6,3.8-0.4c1.2,4.6,0.4,9.4,0.6,14c-1.5,11.1-4.2,22-7.6,32.8c-1.6,10.9-5.1,21.5-6.3,32.5c-0.2,1.8-0.5,3.6-0.6,5.4
		c-1.1,11.6-0.6,23.2,0.8,34.8c1.1,8.9,2.4,17.8,3.6,26.6c0.3,2.6,1.2,4.8,2.9,6.7C276.5,469.9,276.5,470.5,276.2,471z"/>
	<path class="st6" d="M88,227.2c-0.8,0.2-1.6,0.4-2.3,0.7c-1.9,0.6-3.8,3.1-5.7,1.2c-2.2-2.2,0.1-4.5,1-6.6c0.7-1.6,2.2-2.9,2.2-4.8
		c0.2-2.7,3.3-3.2,3.9-5.7c2.8-2.1,5.4-4.4,7-7.6c1.4-3,4.2-4.6,6.7-6.5c-0.8-0.9-1.6-0.5-2.4-0.5c-0.1-0.2-0.3-0.3-0.4-0.5
		c1.7-1.5,2.9-3.7,5.2-4.6c0.3,0.3,0.7,0.5,1,0.8c6.1,1.2,10.3-2.8,14.5-5.9c4-2.9,7.3-6.7,11.2-9.8c4-3.2,6.7-3.1,10.5,0.1
		c0.2,0.4,0.3,0.9,0.4,1.4c-0.1,1.2-0.5,2.3-1.1,3.3c-1.9,3.2-5.1,4.8-7.8,7c-4.2,4-9.5,7.1-11.7,12.9c0.2,1.5,2.2,1.5,2.4,2.9
		c0.8,1.3-1.8,3.2,0.7,4.2c1.3,1.4,1.1,3,0.8,4.6c-0.6,1.6-0.1,3.3-0.5,4.9c-1.1,2.4-1.6,5-2.4,7.5c-0.6,1.9,0,3.3,1.7,4.7
		c5.2,4.1,4.7,7.4-1.1,10.1c-1.2,0.6-2.4,1.1-3.6,1.7c-3.3,1.7-7.1,2.8-8.8,6.7c-0.3,0.4-0.6,0.8-1,1.1c-1.7,1.1-3.3,2.2-5,3.3
		c-2.7,1.8-4,4.2-3.9,7.6c0.2,5,0.1,10,0,14.9c-0.1,1.8,0.6,4.1-2.1,4.8c0.4-8.8-0.3-17.4-6-24.8c-1.7-1,0.1-2.9-1.1-4
		c-0.3-1.9-0.4-3.8-1.5-5.4c-2.1,0.4-0.8,3.3-3.2,3.8c1.6-4.9,2.9-9.7,4.8-14.3c0.8-2,0.6-3-1-4c-0.2-1.4,2.5,0.3,1.7-1.7
		c-0.4-1.2,3.8-2.9-0.4-3.7C89.7,227.1,88.8,227.2,88,227.2z"/>
	<path class="st7" d="M184.2,345.3c-4.3-3.5-8.7-0.7-13.1-0.4c-1.5-3.8-3.2-7.5-3.3-11.7c-0.1-5-4.3-8-6.3-12.1
		c-0.9-1.8-2.1-3.3-3.5-4.8c-5.8-10.3-8.8-21.3-8.2-33.3c0.1-1.3,0.1-2.7,1-3.8c3.9-0.1,3.9,3.2,4.2,5.5c0.9,5.7,2.7,11.2,2.2,16.4
		c-0.1-1.1,0-2.9,0-4.7c-0.1-5.2,3.2-10,1.9-15.3c-0.2-1.6-0.2-3.1,0.4-4.6c1.7-1.8,1.7-3.5,0.7-5.9c-2.6-6.1-4.6-12.5-6.1-19
		c-0.2-1.2-0.5-2.4-0.4-3.6c0.3-1.7,0.2-3.5,1.3-4.9c0.6-0.3,1.3-0.5,1.9-0.2c6.1,3.2,12.5,6.2,17.1,11.6c2.3,4.3,5.7,7.9,7.1,12.7
		c0.1,0.5,0.1,1.1,0.2,1.6c0.2,7.3-0.2,14.5,0.2,21.8c0.3,2.9,0.3,5.7,0.1,8.6c-1.7,6.7-0.7,13.1,2.2,19.3c2,4.3,1.5,9.1,2.4,13.6
		c-0.1,4.4,1.6,8.6,1.3,12.9C186.4,345.9,185.3,345.6,184.2,345.3z"/>
	<path class="st8" d="M331.1,243.1c0,0.7,0,1.4,0,2.1c-6.3-2.8-7.2-8.9-8.8-14.5c-0.4-1.5-0.6-3.2-0.3-5.4
		c0.5,10.7,3.4,16.9,9.6,20.9c3.7-0.1,4.4,3.4,5.9,5.5c1.2,1.8-2.4,1.9-2.5,3.6c-1.9,0.6-3.4-0.3-4.7-1.6c-4-3.6-9.1-4.8-14-6.3
		c-2.3-3-1.1-6.4-1.4-9.7c0.1-1.3,0.2-2.6,1.4-3.6c3.2,0.8,1,4.5,2.9,5.4c-1.2-1.6-0.7-4.4-2.6-6.3c2.6-6.5-0.5-13-0.1-19.5
		c-0.7-1.3,2.7,0.1,1.2-2.2c-3-4.4-4.6-9.5-6.3-14.6c-0.5-1.9-0.7-3.9-1.7-5.6c-1.6-2.9-3.8-4.9-7.5-3.6c-2.1,0.6-4.6-0.2-6.3,1.8
		c-1.7,0.9-3.4,1.6-5.3,1.3c-3.8-1.7,1.2-3.4,0-5.1c0.3-1,1.2-1.5,2.1-1.9c-1.9,0.5-2.4,2.3-3.6,3.6c-1.6,1.6-1.1,3.8-1.6,5.7
		c-2.6,5-2.4,10.3-1.2,15.6c0.6,3.5,0.4,7.1,0.3,10.7c-0.1,3.6-2.8,6.6-2.5,10.5c0.2-0.8,0.1-1.5,0.2-2.1c0.1-1,0.2-2,1-2.7
		c0.7-0.7,1.5-0.4,2.1,0.2c0,5.3,2.3,9.3,6.4,12.5c1.6,1.3,3.4,2.6,4.2,4.7c0.4,5.4-0.7,7.2-5.4,9.2c-1.8,0.8-3.7,1.4-5.7,1.7
		c-1.5,0.4-3,0.8-4.6,0.9c-1.3,0-2.5,0-3.7-0.6c-1.4-1.3-0.4-2.4,0.4-3.3c1.4-1.7,2.8-3.5,3.5-5.4c-2,3.6-4.4,7.2-8,9.9
		c-0.9,0.3-1.9,0.3-2.8,0c-0.7-0.3-1-0.9-1.3-1.6c0.3-1,0.6-2,0.9-3c0.7-1,0.9-2.3,2-3l0,0c4.1-8,2.9-17.1,5.1-25.6
		c1.3-5-0.2-9.9-1.2-14.7c-0.5-2.1-1.3-4.1-1.6-6.3c0.7-10,9.4-21.8,17.6-23.8c3.9,2.1,8.1,1.9,11.9,0.5c3.7-1.4,6.6-0.7,9.7,1.1
		c4.4,3.1,5.7,8.2,7.3,12.8c2.3,6.9,4.6,13.9,5.7,21.1c0.2,6.2,1,12.3,1.4,18.5C329.4,234.9,328.5,239.3,331.1,243.1z"/>
	<path class="st9" d="M107.4,350.5c-0.4,0.3-0.9,0.5-1.3,0.8c-0.6,0.1-1.3,0.1-1.9,0.3c-11.6,3.1-10.9,3.7-12.8-9.2
		c-1.3-9-0.8-18.3,1-27.3c0.4-1.9,0.5-3.9,0.8-5.9c-1.6-4.2,1.9-7.2,2.5-10.9c3.5-10.7,3.1-21.8,3.1-32.9c1.2-4.4,2.1-9,5.6-12.4
		c1.1-1,2.2-1.9,3.6-2.5c2.1-0.2,3.8-2.4,6.1-1.6c0.4,0.3,0.7,0.7,0.9,1.1c0.5,5.3-0.6,10.5-1.1,15.8c-0.2,2.2-0.9,4.3,1.6,5.7
		c1.2,0.7,1.7,2,0.9,3c-2.7,3.2-0.6,4.9,1.8,6.6c0.9,0.7,1.5,1.7,1.9,2.9c2.2,10-3.5,17.9-7.1,26.4c2.8-6.5,6.7-12.5,7.8-19.6
		c0.2-2,0-4,0.6-6c0.7-1.9,1.3-3.8,3.4-4.8c1.6,0.3,1.8,1.6,2.1,2.8c0,0.5,0,1-0.1,1.5c0.5,6.6-1.5,12.4-5.7,17.6
		c-1.4,1.8-2.3,4-2.7,6.4c-1.2,3.2-2.5,6.4-4.2,9.3c-2.9,5.6-4.2,11.8-7,17.4c0.1,0.7,1.2,0.3,0.6,0.3c-0.3,0-0.4-0.1-0.3-0.4
		c0.4-1.3,0-3.9,2.7-1.8c1.1,3.5,0.5,7,0.6,10.6c0,1.3,0,2.6-0.3,3.8C110.4,349.2,107.9,349,107.4,350.5z"/>
	<path class="st10" d="M165.3,190.9c0.4,5.3,2.2,10,6,13.9c0.3,2.4,4.1,1.4,4,4.1c-2.4,2.7,0.9,3.5,1.9,4.4c3.2,2.6,6.2,5.4,9,8.3
		c1.4,1.5,3.3,2.6-0.8,3.4c-2,0.3-6.1,2-3.3,6.1c-0.9,1,0.9,2,0.1,3c-0.8,4.3-0.3,8.6,0.5,12.8c0.7,3.4,0.3,6.1-2.5,8.2
		c-0.9-0.4-1.5-1.1-2.2-1.6c-6.4-4.4-13.1-8.4-19.5-12.7c-3.7-2.5-7-5.5-9.1-9.6c-1.3-2.6-1.9-5.3-0.8-8.1c1.3-2.3,3.3-4.1,4.4-6.6
		c2.4-5.8,4.7-6.6,10.4-4.1c0.9,0.4,1.7,1,2.8,1.3c-0.1-1.2-1.1-2.4-0.3-3.6c0.7-0.9,1.9-0.5,2.9-1.2c-6.7-2.9-10.5-8.5-13.5-14.6
		c-2.6-5.1-5.1-10.1-9.3-14.1c0.9-1.5,2.1-2.7,4-2.8c4.3,1.1,5.4,6,9.2,7.8c0.3,0.3,0.6,0.6,0.8,0.9
		C161.7,187.7,164.3,188.4,165.3,190.9z"/>
	<path class="st5" d="M526.1,269.3c0.6-1,1.2-2.1,1.7-3.1c2.4-4.5,5.3-8.8,3.9-14.3c-0.1-0.4,0.5-0.8,0.9-1.1
		c1.4-0.4,2.2,0.6,2.9,1.5c0.2,0.2,0.3,0.4,0.4,0.7c0.1-0.5-0.5-0.7-0.6-1.2c-1.2-1.6-3.4-2.1-4.2-4.1c-0.3-0.8-0.7-1.5-0.1-2.3
		c0.8-1,1.7-0.7,2.7-0.3c4.3,2.1,6.6,5.7,7.8,10.2c2,0.8,4.4,1.4,3.7,4.5c-0.3,3.9-1.9,7.1-5.2,9.2c-9,5.7-12.7,14.4-14.8,24.4
		c-2.9,13.9-8.1,27-15.4,39.2c-1.1,1.9-2.6,3.5-4.6,4.4c-2.5,0.4-4.8,0.3-6.4-2c-0.7-1.6-2.6-2.7-2.1-4.9c2.3-3.4,3.7-7.1,3.9-11.1
		c0.2-3.9,1.5-7.4,3.3-10.8c3.5-6.9,8.6-12.9,11.5-20.1C519,281.8,522.1,275.3,526.1,269.3z"/>
	<path class="st11" d="M145.1,586.9c0,2.4,0,4.9,0,8.1c6.9-3.8,12.7-7.7,19-10.4c9.2-3.9,18.8-4.5,28.2-0.1c1.1,0.5,2.7,1,2.4,2.7
		c-0.3,1.5-1.8,2-3,2.3c-9.1,2.6-18.1,5.4-27.5,6.4c-7.4,0.7-9.4,2.1-10.7,7.2c-1,3.8,2.1,5.4,3.5,7.8c1.5,2.4,2.8,4.4,1.6,7.2
		c-1.4,3.2-4.3,3.6-7.1,3.7c-9,0.2-18,0.1-27,0.1c-2.5,0-5,0.1-7.5-0.1c-1.9-0.1-4.8,1.1-5.3-1.1c-0.6-2.4,0.1-5.4,2.4-7.1
		c2.2-1.7,4.7-3.2,7-4.7c1.5,2.3-0.8,6.9,4.2,7.3c5.4,1.1,10.6-1.1,16-0.7c2.2-0.3,2.6-1.8,2.5-3.6c-0.1-4.4,0-8.9-0.5-13.3
		C142.8,594.8,140.8,590.3,145.1,586.9z"/>
	<path class="st12" d="M484.2,224.1c-0.1-1.8-0.3-3.6-0.2-5.4c0.4-3.9-0.4-6.8-4.9-7.5c-2.1-0.4-2.9-2.4-4-4.1
		c0.7-0.8,1.6-1.1,2.7-0.7c-4.3-3-8-6.8-12.7-9.3c-2.8-2.4-1.7-5.3-0.9-8.1c2-0.6,3.4-3.4,6.1-1.7c10.4,1.6,15.4,10.2,21.8,16.8
		c1.8,1.8,1.3,4.5,1.1,6.7c-0.3,4.8,0.8,9.6-1,14.3c-0.8-0.2-1.3-0.7-1.5-1.4c-0.4-2.4,1.1-4.4,1-6.3c-1.6,4.1-0.6,9-1.3,13.7
		c-0.7,3.8-1.9,7.5-3.3,11.1c-1.8,4.5-0.9,8.1,3.5,10.4c1.1,0.6,1.8,1.4,1.9,2.7c1.4,6.2,0.4,12.1-2.7,17.7
		c-1.8,1.2-2.1-0.7-2.9-1.5c-3.4-3.1-5.9-7.5-11-8.4c-3.6-4.3-3.9-9.1-2.2-14.2c1.1-1.4,1.6-3.1,2.4-4.7c7.3-8.6,10.6-18.6,9.9-28.8
		C485.5,217.6,487,221.3,484.2,224.1z"/>
	<path class="st13" d="M129,580.9c0.7-3.9,1.5-7.8,2-11.7c1.3-9.5,3.7-10.1,13.4-10c1.3,0,2.5,0.6,3.8,0.9c1.4,5.1-0.6,9.8-2.1,14.5
		c-0.7,1.6-1.7,3.1-1.6,4.9c-0.8,3.5-0.9,7.1-2.1,10.5c-2.9,4.1-5.1,8.4-2.9,13.6c0.7,2.1,2.4,3.6,3.4,5.5c1.2,2.1,2.3,4.1,0.2,6.3
		c-0.8,0.4-1.6,0.4-2.5,0.5c-5-0.6-10.1,1.6-15.1-0.4c-0.5-0.3-0.9-0.8-1.1-1.4c-0.8-6.5,1.2-12.7,1.8-19.1
		C127.1,590.5,128.6,585.8,129,580.9z"/>
	<path class="st14" d="M461,564.1c-7-14.7-8.7-30-5.1-45.8c2.1-9,0.3-17.8-0.3-26.6c-0.3-3.8-0.2-7.6-0.5-11.4
		c-0.3-4.3-0.6-8.5-3.8-11.9c-5-5.3-6.4-12.1-7.2-19c0.3-0.2,0.8-0.4,0.8-0.3c3.7,7.8,10.2,5.7,16.4,4.6c0.6,0,1.1,0.3,1.4,0.8
		c1,3.1-0.1,6.3,0.9,9.4c0,7.5,0,15,0,22.5c-0.6,4.4-0.6,8.8-1.5,13.1c-0.4,9-1,18.1-1,27.1c-0.4,9.6,0.7,19.3,0.2,28.9
		c0,0.8,0.2,1.6,0.7,2.4c0,0.4,0,0.8,0,1.2C460.9,560.6,462.4,562.7,461,564.1z"/>
	<path class="st15" d="M443.2,392.1c-5.5,5.8-11.2,11.5-13.9,19.3c-1.2,3.5-3.5,5.9-6.7,8.5c0.3-2,0.5-3.5,0.7-5
		c-0.9-1.1-0.6-2.3,0.1-3.2c4.9-7.2,6.6-15.4,7.9-23.8c0.9-5.7,3.3-10.8,6-15.9c0.9-1.1,0.9-2.5,0.7-3.8c-0.3-2.1,0.8-3.1,2.8-3.3
		c3.1,0.1,6.4,1.9,8.7-2c0.5-0.9,2.1-0.7,3,0.3c1.5,1.2,3.8,2.4,0.1,3.8c-1.1,0.4-2.1,0.9-3.1,1.6c-1.1,0.7-2.2,1.7-2,3.2
		c0.2,1.7,1.4,2.6,2.9,3.1c0.6,0.2,1.4,0.1,2,0.4c1.9,0.8,3.5,2.1,3.9,4.2c0.5,2.4-1.3,3.5-3,4.7C449.6,386.6,445.2,388,443.2,392.1
		L443.2,392.1z"/>
	<path class="st16" d="M123.2,459.1c1.7,5.9,5.5,10,10,14.1c3.5,3.1,4.2,8.7,2.6,13.1c-2.7,7.4-1.7,14.6-0.7,22c1,0.9,1,2.1,1,3.2
		c-0.3,7.5-0.5,15.1-3.1,22.3c-2.3-2.8-2.9-6.1-3-9.6c-2.4-11.9-4.5-23.8-6.5-35.8c-0.2-1.5-0.5-3-1.2-4.3c-0.2-0.9-0.2-1.8-0.2-2.7
		c0-5.3-0.8-10.5-0.6-15.7C121.7,463.4,121.3,461,123.2,459.1z"/>
	<path class="st17" d="M491.1,350.1c-0.1,1.2,0.5,2.9-2,2c-4.2-1.4-8.7-7-9-11.4c-0.3-3.6-0.6-7.2-1.1-10.8
		c-0.7-5.5-3.4-7.8-8.9-7.8c-8.7-0.1-14.3-1.7-19.9-5.8c4.8-0.3,8.8-0.6,12.7,0.3c4,0.9,7.9,0.4,11.9,0.5c4.8,0.1,5.9-4,8.2-6.7
		c4.6-5.3,10.3-10.1,10.1-19c0.9,1.7,1.5,2.7,2,3.7c1.3,4.4-0.7,7.9-2.9,11.4c-0.2,0.4-0.5,0.8-0.8,1.2c-1.2,2-3.1,3.5-4.4,5.4
		c-1,1.9-2.2,3.6-2.2,5.9c-0.1,8.8,1.5,17.4,4.8,25.6C490.6,346.3,492.1,347.9,491.1,350.1z"/>
	<path class="st18" d="M302,511c-1,6.6-1.9,13.3-2.9,19.9c-0.2,1.2,0.6,2.6-2,4.1c0.2-7.7-0.6-14.8,0.5-21.9
		c2.3-15.2-1-28.9-10.6-40.9c-0.5-0.6-1.4-0.8-2.1-1.2c0-1.2,0.9-1.8,1.9-2c4.3-1.1,8.4-3,12.7-4c1.5-0.4,3.2-1.2,4.6,0.3
		c2,3.8,0,7.3-0.9,10.9c-1.3,5.7-0.6,11.4-0.4,17.1c0.2,5.7,0.7,11.5-0.3,17.2C302.4,510.7,302.2,510.8,302,511z"/>
	<path class="st11" d="M307,602.9c0.3,1.4,0.8,2.9,1,4.3c0.4,3.3,1.3,2.5,3.8,1.3c7-3.5,14.4-5.3,22.3-3.6c0.8,0.2,1.7,0.4,2.4,0.8
		c1.4,0.9,4.4-0.8,4.3,2.1c-0.1,2.6-2.8,3.4-4.9,3.2c-6.6-0.7-12.3,2.5-18.3,4.2c-4.9,1.4-6.2,5-4.1,9.6c0.7,1.5,1.5,3,2.2,4.5
		c2.7,5.6,1.3,9.2-4.6,11.8c-2.7-3.8-0.4-8.3-1.8-12.3c-1.1-4.4-0.2-8.8,0.3-12.9c0.3,0.4-0.1,1.2-0.1,2c-0.7,2-2.1,3-4.2,3.2
		c-0.9,0-1.6-0.3-2.2-1c2.9-3,2.7-6.9,3-10.6c0.1-2.2,0.1-4.3,0.2-6.5C306.5,602.6,306.8,602.6,307,602.9z"/>
	<path class="st14" d="M492.2,453.3c-0.2,0.9-0.6,1.4-1.6,1.7c-9.9,3.4-13.5,8.5-13.4,18.7c0.1,7.3,0.1,14.6-2.9,21.5
		c-2.2-3.6-0.4-7.6-0.9-11.4c-0.1-1.1,0.4-2.4,0.2-3.3c-0.5,4.7-0.3,9.8-0.5,14.9c0,1.6-0.3,3.3,0.9,4.7c0,1,0.1,2,0.1,3
		c-5.1-1.5-4.7-6.2-4.8-9.8c-0.3-8.4-0.7-16.8,1.5-25.2c1-3.7,0.3-7.9,0.3-11.9c0-2-0.3-4,0.9-5.8c3.9,0,7.5,1.5,11.2,2.3
		C486.3,453.3,489.4,450.9,492.2,453.3z"/>
	<path class="st18" d="M414.2,291.6c4.3,1.5,8.4,3.4,13,3.6c4.6,1,3.5,3.6,1.6,6.1c-4.8,6.2-8.8,12.9-13.7,18.9
		c-2.3,2.8-2.2,5.2-0.4,8.1c3,4.8,5.7,9.7,8.9,14.4c1.1,1.5,2.8,3,1.8,5.3c-3.5-2-6.1-5-8.4-8.2c-1.9-2.7-3.7-5.6-5.8-8
		c-5.8-6.6-5.6-14.1,0.9-19.8c7-6.2,6.8-12.2-0.5-18.5c-0.4-0.4-0.2-1.6-0.3-2.4C412.4,290.3,413.5,289.9,414.2,291.6z"/>
	<path class="st19" d="M485.3,615c1.9-1.5,3.7-2.2,6.4-1.4c3.5,1,7.2,0.9,10.7-0.4c0.8-0.3,1.6-0.6,2.4-0.8c2.5-0.5,6.1-1,6.7,1.4
		c0.8,3.3-3.4,2.7-5.1,2.9c-7.5,0.8-14.2,2.4-19.2,8.7c-1.4,1.7-3.8,1.8-6,1.7c-1.4-0.1-2.9,0-3.4,1.5c-0.6,1.6,0.9,2.3,1.9,3.1
		c0.9,0.7,1.9,1.3,2.8,2.1c2.5,2.2,2.4,4.1-0.8,5.7c-5.5,2.6-11.4,3.2-17.3,3.7c-0.5-1.2,0.3-1.9,1.1-2.5c4.4-3.6,5.9-8.5,6.6-13.9
		c0.1-1.5,0.2-3,1.5-4c2-0.8,3.6,0.6,5.4,0.9c1.3,0.2,2.5,0,3.5-1c0.3-0.3,0.5-0.7,0.8-1C484.7,619.7,483.1,616.8,485.3,615z"/>
	<path class="st20" d="M180.1,388.2c0.3,12.2-1.7,24.2-5,35.9c-5.9,21.2-9.7,42.7-11,64.7c-0.2,2.8-1.2,5.5-1.8,8.2
		c-1.1-6-1-12.1-0.6-18.2c1.4-18.6,3-37.1,8.1-55.1c2.8-9.9,5.4-19.8,7.3-29.9C177.5,391.9,176.8,388.9,180.1,388.2z"/>
	<path class="st21" d="M505,307.9c-2.6,5.1-3.3,10.5-4,16.1c-0.3,2.5-1.8,4.6-3.9,6c-2.7-0.5-1.8-2.7-2-4.2
		c-0.4-5.2,0.8-10.4,0.5-15.3c-1.2,2.1,1.9,5.5-1.4,7.6c-0.6-3.3,0.8-6.8-0.9-10c-0.4-0.3-0.5-0.8-0.4-1.3c3.5-3.2,4.7-7.5,5.9-11.8
		c0.2-1.2,0.8-2,2.2-2c1,0,1.9-0.4,2.9-0.7c5.2-2.1,5.2-2.1,6.4,3.2c0.2,0.4,0.3,0.8,0.4,1.3c-1.1,3.4-3.6,5.8-5.5,8.6
		C504.8,306.1,503.1,306.9,505,307.9z"/>
	<path class="st22" d="M443.9,219.2c-0.4,0.7-0.7,1.4-1.1,2.1c-2-1.9-1.1-4.1-0.5-6.3c1.4-5.8,3-11.5,5-17.1
		c2.2-6.3,6.1-8.8,13.2-8.6c0.3,3.4,0.3,6.7-0.2,10.1c-1.5,4.3-4.3,7.8-7.3,11.1c-1.2,1.3-2.8,2.4-3.2,4.3c-0.8,2.2-1.7,4.3-3.8,5.6
		c-0.7-0.1-1.2-0.5-1.2-1.2c0-0.5-0.2-1,0.1-1.4C444.3,218.1,444.8,219,443.9,219.2z"/>
	<path class="st23" d="M472.1,605.1c-1.4-3,0-6,0.1-9c1.2-9.6,4.8-18.4,8.9-27.1c4.3-11.1,5.4-22.9,6.9-34.6
		c1.7-13.2,3.4-26.4,2.8-39.7c-0.4-8.4,1.5-16.5,3.4-24.6c1-0.2,1.5,0.1,1.1,1.2c-4.9,19.4-2.3,39.4-4.9,59
		c-2.6,19.7-5.8,39-13.4,57.5c-2.3,5.5-4.2,11.2-3.9,17.4C472.8,605.5,472.5,605.5,472.1,605.1z"/>
	<path class="st24" d="M180.1,388.2c-7.5,29.4-15.7,58.7-16.8,89.4c-0.2,6.5-1.6,12.9-1,19.4c-0.1,0.7-0.2,1.3-0.3,2
		c-0.4,0.4-0.8,0.4-1.2,0.1c0-4.1,0-8.1,0-12.2c-1.8-7.1-1.2-14.1-0.3-21.2c1.6-13.3,3.1-26.7,6.7-39.7c0.7-2.4,1.7-4.7,2.7-6.9
		c2.2-7.2,4.1-14.5,5.3-21.9c1.3-4.2,0.6-8.6,2.1-12.8c0.6-1.5,0.4-3.4,1.9-4.5c2.1,0.6,1.2,2.2,1,3.5
		C180.2,385,180.2,386.6,180.1,388.2z"/>
	<path class="st25" d="M293.2,177.3c-8.1,2.9-16.6,14.4-16.9,22.9c0.3,0.5,0.2,0.9-0.4,1.2c-1.4-0.3-1.4-1.2-0.9-2.3
		c0.5-12.2,12.3-23.4,24.2-22.9c1.4,0.1,2.6-0.3,3.8-0.8c6.3-2.3,10.8-0.9,14.6,4.7c3.4,5,5.2,10.7,6.9,16.5
		c3.5,11.7,6.6,23.3,5.3,35.7c-0.4,3.7,0.6,7.3,1.2,10.8c-4.2-3.2-2.5-8-3.2-12.1c-0.3-6.2-0.5-12.5-1-18.7
		c-2.2-8.9-4.6-17.7-8-26.1c-1-2.6-1.8-5.4-4.4-7c-3.3-2.3-6.6-3-10.6-1.2C300.4,179.4,296.7,178.5,293.2,177.3z"/>
	<path class="st26" d="M342.1,365.2c-1.6-2.3-0.9-4.9-0.8-7.3c0.1-3.5-0.8-6.2-4.1-7.8c-5-5.7-5.6-12.6-5.6-19.7
		c1.9-1.7,2.1-4.3,3.4-6.4c1-0.3,1.7,0.3,1.9,1.1c1.8,7.8,6.9,14.4,8.3,22.3c0.6,1.1,0.1,2.4,0.8,3.5
		C345.8,355.9,344.5,360.7,342.1,365.2z"/>
	<path class="st27" d="M446,220.2c0.2-2.5,2.7-3.7,3.2-6c2.8-4.3,7.5-7,9.5-11.9c0.3-0.7,1.1-1.3,0.5-2.2c1.3-3.6,1.1-7.3,0.9-11.1
		c-0.3-0.2-0.4-0.4-0.3-0.6c0.1-0.2,0.2-0.3,0.3-0.3c2,2.3,0,5.4,1.1,7.5c3.2,6.1-0.9,9.5-3.5,14.2c-2.7,4.9-3.5,11.1-2.2,17.1
		c0.9,4,2.5,7.8,2.6,12c-3.6-0.6-4.5-3.8-5.6-6.3c-1.5-3.2-2.5-6.7-2.2-11.2c0,0.2-0.9,0.7-0.3,0.8c0.1,0,0.1,0.2,0.1,0.5
		c0.1,1.4-0.1,2.4-1.9,1.5c-1.1-0.2-1.3-1.1-1.7-2C445.7,221.7,445.6,221.1,446,220.2z"/>
	<path class="st28" d="M503.1,371.2c0.1-0.4,0.1-0.8,0.2-1.2c2.5-0.3,3.5,1.8,4.8,3.3c5.3,7.2,12.3,13.1,16,21.5
		c2.8,6.3,7.7,10.8,12.9,14.9c3.9,3,6.2,6.4,4.1,11.5c-0.4,0.3-0.8,0.4-1.3,0.2c-9.4-9.5-17.2-20.1-23.5-31.9
		c-2.8-5.3-6.5-10-11.2-13.8c-1-0.8-2.1-1.6-2.5-3C502.6,372,502.8,371.6,503.1,371.2z"/>
	<path class="st29" d="M505.2,336.1c5.2-3.9,7.3-9.8,9.8-15.4c4.4-9.9,8-20.1,9.9-30.8c1.6-8.9,6.2-16,13.7-21.2
		c3.3-2.3,5.7-5.1,5.7-9.4c0.4-3.9,0.7-7.8-0.5-11.6c-0.5-1.6-1-3.2,0.3-4.6c5.4,7.4,3.8,21.4-3.5,26.3
		c-8.5,5.7-12.4,13.9-14.4,23.5c-2.9,14.1-8.4,27.3-15.7,39.7c-1.1,1.9-2.3,3.6-4.4,4.6C505.1,337.5,505,337,505.2,336.1z"/>
	<path class="st30" d="M479.3,624.9c-1.9,0.1-3.5-0.8-5-1.8c-2.1-2-1.1-4.7-1.1-7c-0.1-3.3-0.9-6.6,0.3-9.9c0.9,1.1,1.5,1.5,2.3-0.2
		c1.1-2.5-0.3-5.1,0.6-8.1c3.7,2.8,6.7,5.5,6.8,10.3c-2.8-0.3-3.4-2.6-3.9-3.8c0.7,1.5-0.4,3.7-0.7,5.7c-0.4,0.8,0.7,0.5,0,0.4
		c-0.1,0,0-0.2,0.1-0.5c0.3-0.9,0.3-2.1,1.5-2.2c1.2-0.1,1.7,0.8,2.1,1.7c0.4,1.1,0.7,2.2,1.1,3.2c1.1,3.5,1.5,7-0.1,10.5l0,0
		C482,624,480.6,624.4,479.3,624.9z"/>
	<path class="st31" d="M342.2,416c0.2,3.1-1.1,5.8-2.3,8.5c-1.6,3.6-3.1,7-1.9,11.3c1.1,4.2-2.2,6.1-5.8,7.2c-1.5-2.8,1.1-5,1.3-7.4
		c-1.1,2.7-1.7,5.7-2.9,8.4c-0.6,0.8-1.3,1.5-2.4,1l-0.3-0.2c-0.7-0.8-1-1.8-0.8-2.7c2-8.1,3.8-16.3,8.7-23.3
		c0.8-1.1,1.7-2.1,3.2-1.9c1.3,1.2,0.8,2.5,0.2,3.7C340.8,419.6,339,416.1,342.2,416z"/>
	<path class="st32" d="M540.4,421c0.2,0,0.5,0,0.7,0c1.8,2.1,2.7,4.7,3.8,7.2c1.7,1.7,0.5,2.9-0.7,4c-1,1.6-2.5,2.7-4.4,2.9
		c-10.2,1-18.7,6.4-27.7,10.4c-4.1,1.8-8.1,3.7-12.2,5.5c-0.7,0.7-1.4,0.6-2.2,0.2c-1.9,0.7-3.7,1.4-5.6,2c-7.1,1.6-13.7-0.1-20.1-3
		c-0.4-0.4-0.7-0.7-1.1-1.1c0.1-0.6,0.7-0.7,1.1-0.9c2.1,0.9,4.2,1.8,6.3,2.7c11.2,1.1,21.4-2.4,31.2-7.2c9.9-4.8,19.5-10,30.4-12.3
		c2.1-1.5,1.7-3.2,0.8-5.2c-0.8-1.7-2.4-3.3-1.5-5.5C539.7,420.6,540.1,420.6,540.4,421z"/>
	<path class="st33" d="M145,575.1c1-5,2.1-9.9,3.1-14.9c1.3-1.2,0.7-2.9,1.3-4.3c0.6-2.8,1.8-2.5,3.1-0.5c0.7,1.2,0.1,2.6,0.1,3.9
		c0.6-4.4,0.6-4.4-1.9-9.2c0.1-0.8,0.6-1.3,1.4-1.3c4.2-0.2,5.5,1.8,4.7,5.8c-1.2,5.8-1.7,11.7-0.5,17.6c0.3,0.9,0.7,2.2-0.2,2.7
		c-1.3,0.7-1.5-0.8-1.9-1.6c-0.6-1.2-0.1-3.6-1.9-3.5c-2.3,0.1-2.8,2.5-3.4,4.3c-1.1,3.3-0.3,7.3-3.5,9.9l-0.1,0.2
		c-0.5,0.3-1,0.2-1.4-0.2c-0.8-1.2-0.1-2.5-0.1-3.8C144.3,578.6,144,576.7,145,575.1z"/>
	<path class="st34" d="M123.2,459.1c0,7.7,0,15.4-0.1,23.1c-2.5,0.1-0.8-2.3-1.8-3.1c-2.3-8.8-1.1-18.1-3.2-26.9
		c-0.5-1.9,0.2-4.3-2.5-5.4c-0.7-0.3,0.6-1.2,1-1.8c2.2-0.4-0.6-3.9,2.4-3.8c0.3,2.1,1.5,1.5,2.9,1.2c2.9-0.6,5.8-1,8.5,1.1
		c-1.2,1-2.1,0.1-3,0c-5.5-0.6-7.3,1.2-6.3,6.4C121.8,453,122.5,456,123.2,459.1z"/>
	<path class="st35" d="M145.4,584c1-4.1,1.8-8.3,3-12.3c0.6-2,2.1-4.4,4.2-4.3c2.6,0.2,2.3,3.1,2.5,5.2c0,0.2-0.9,2,0.8,1
		c0.3-0.2,0.2-0.9,0.3-1.4C159.3,581.6,157,584.1,145.4,584z"/>
	<path class="st36" d="M439.7,366.1c-1.8,1.6,0.4,4.8-2.5,5.9c-0.2-0.9,0.6-2.3-1.6-2.2c-4.4,0.3-7.4-2-9.2-5.9
		c0.6-1.3-0.9-2.4-0.3-3.7c3.5-1,5,3.7,8.5,3c2.9-0.7,2.4-3.8,3.8-5.6c0.4-0.2,0.9-0.4,1.4-0.4c2.6,0.1,4.2,1.7,5.5,3.8
		c1.9,4.6,1.9,4.6-3.1,4.6C441.2,365.6,440.4,365.7,439.7,366.1z"/>
	<path class="st37" d="M152.2,548.8c-0.4,0.5-0.8,0.9-1.2,1.4c-0.6,1.8-1,3.7-3.5,3.2c-2.3-1-2.5-2.8-2-4.6c-1.6,3.8-5.2,4.6-10.3,2
		c0.3-2.6-0.8-5.3,0.8-7.7c1.6,1.1,0.4,2.7,0.7,3.9c1-1.9-0.7-5.3,2.8-6.2c2.7-0.7,9.9,1.9,10.9,3.9c0.6,1.2,1.1,2.4,1.9,3.4
		C152.2,548.4,152.2,548.6,152.2,548.8z"/>
	<path class="st38" d="M456.1,264.9c-0.6-0.5-1.6-1.5-1.7-1.5c-3.3,2.9-4-0.5-5.4-2.2c0.9-0.8,2.8-1.4,1.1-2.9
		c-2.6-2.3,0.8-1.5,1-2.2c4.2-1.2,3.1-5,4-7.8c0.1-0.7-0.1,0.1,0.1-0.5c0.8-2.2-0.5-6,2.2-6.5c2.2-0.4,4.4,2.3,5.8,4.6
		c-4.1,4.8-6.8,9.8-3.4,16.2c0.8,1.5,0.6,2.9-0.6,4.1C457.9,266.6,457,265.7,456.1,264.9z"/>
	<path class="st39" d="M425.4,347.9c-4.1-6.6-8.1-13.4-12.3-19.9c-1.8-2.9-1.9-5,0.4-7.9c5.2-6.5,9.7-13.5,14.8-20
		c2-2.5,1-3.7-1.1-4.9c0.4,0,0.8,0,1.1,0c0.8-0.9,1.8-0.9,2.8-0.5c0.9,0.6,1.3,1.5,1.5,2.5c-0.5,3.3-2.8,5.6-4.6,8.1
		c-3.6,5-7.2,9.9-10.9,14.8c-2.2,2.8-2.2,5.3-0.4,8.2c3.5,5.8,6.7,11.9,10.9,17.2c1.4,1.8,3.3,3.4,3.3,6c-0.1,0.5-0.3,0.9-0.7,1.3
		C428.6,351.1,427,349.5,425.4,347.9z"/>
	<path class="st40" d="M179.4,253.3c0.3,0.6,0.5,1.2,0.8,1.8c3.8,15.1,1.2,30.5,2.1,45.8c0.5,1.1-0.2,1.4-1.1,1.4
		c-0.8-0.9-0.6-1.9-0.3-3c0-2.7,0-5.4,0.1-8.1c-1-7.9,0.3-15.9-0.7-23.8c-0.1-0.1-0.2-0.3-0.4-0.4c0-5.4-3.6-8.8-6.7-12.4
		c-5.4-4.7-11.7-7.9-17.8-11.6c1.7-1.9,1.8-2,4.3-0.7c5.4,2.7,10.3,6.1,15.3,9.5C176.4,252.8,177.5,254.2,179.4,253.3z"/>
	<path class="st41" d="M123.2,484.3c3.1,6,3,12.8,4.5,19.2c1.6,6.8,2.8,13.6,2.4,20.7c-4.6-9.2-5.9-19.2-6.9-29.2
		C122.4,491.4,122.3,487.9,123.2,484.3z"/>
	<path class="st42" d="M431.2,387.9c1.7,10.3-3.5,18.6-8,27c-1.9,2.4-3,5.2-4.1,8c-0.4,2.4-1,4.8-3.1,6.4c-0.9-0.1-1.4-0.5-0.9-1.5
		c2.9-9,7.3-17.3,11.2-25.9c1.4-3.2,2.2-6.6,2.9-9.9C429.5,390.5,429.2,388.7,431.2,387.9z"/>
	<path class="st43" d="M447.3,552c-1.9-11.1-4.1-22.2-5.5-33.4c-1.2-9.2-1.4-18.5,0.2-27.8c1.4,1.1,0.1,2.9,1,4.2
		c-1.2,18.6,2.4,36.7,5.3,55C448.5,550.9,449.2,552.1,447.3,552z"/>
	<path class="st44" d="M491.9,255.2c-0.5-0.6-0.9-1.5-1.5-1.8c-5.2-2.4-5.6-6.4-4.1-11.2c2-0.1,1.2,1.2,1,2.1
		c-0.4,3.3,0.5,5.9,3.6,7.6c0.6,0.3,1.4,0.7,1.5,1.2c1.2,6.1,6.7,6.3,10.9,8.2c7.4,3.3,7.7,10.7,9.7,17c0.4,1.2,0.2,2.6,1.2,3.7
		c0.4,1.4,1,2.8-0.4,4.1c-1.6-5-3.4-9.9-4.7-15c-1.5-6.1-6.2-8.2-11.3-9.8c-4.1-1.3-1.9,4.1-4.4,4.5
		C491.6,262.6,493.5,258.7,491.9,255.2z"/>
	<path class="st45" d="M258,342.7c0.7-11.6,3-23,3.2-34.6c2-9.9,1.4-20,2.1-29.9c2.1,0.3,1.9,2.1,2.2,3.5
		c0.7,19.6-1.9,38.9-4.4,58.3c-0.2,1.8-0.5,3.6-1.8,5.1C257.3,345.2,257.7,343.9,258,342.7z"/>
	<path class="st46" d="M303.3,519.3c0.7,10.8-2.5,21-4.2,31.4c-1.3,7.9-0.9,15.9-0.3,23.9c0.2,2.9,0.4,5.9-1,8.9
		c-2-9-0.7-34.2,1.6-42.7c2.6-9.7,2.9-19.7,2.6-29.7c0,0,0.3,0.2,0.3,0.2C305.1,513.6,303.2,516.6,303.3,519.3z"/>
	<path class="st47" d="M276,201c0.1-0.3,0.2-0.6,0.2-0.9c2.9,8.5,5.8,16.9,2.1,25.9c-0.6,1.4-0.4,3.3-0.2,4.9
		c0.7,6.1-1.5,11.3-5,16.1c-1.8-2.6-0.5-4.8,0.7-7.1c1.6-0.9,1.3-2.6,1.5-3.9c1.2-8.8,1-17.7,0.3-26.5
		C276.1,206.7,274.1,203.8,276,201z"/>
	<path class="st48" d="M159.1,185.1c-3.9-1-5.5-4.9-8.6-7c-3.2-1.2-6.1-3.8-9.8-1.6c-0.5,0.3,0.1,0.4-0.5,0.1
		c-8.9-5.2-12.1,3.7-17.4,7c-3.3,2.1-5.3,6-9.8,6.2c-0.5-0.2-0.8-0.5-1-0.9c5.2-3.6,9.8-7.9,14.4-12.1c8.3-7.4,19-7,26.8,1.1
		C155.4,180,157.2,182.6,159.1,185.1z"/>
	<path class="st49" d="M327,461.2c0.9-2.3,1.3-4.6,1.3-7c2-0.2,1.3,1.1,1.1,2.1c-0.3,3-0.5,5.9-0.9,8.9c-0.2,1.4,1.1,4-2.6,2.8
		c-0.8-0.3-1.2,3-1.4,4.7c-1.2,8.2-2.2,16.5-3.3,24.7c-0.1,1-0.5,1.9-0.8,2.8c-0.9-0.4-0.4-1.6-1.1-2.1c0.5-9.1,1.9-18,3.9-26.8
		c1.1-5.1-0.3-7-5.1-7.3c-1-0.1-1.9-0.5-2.8-0.8c-0.4-0.5-0.3-0.9,0.1-1.4c4.9-0.6,7.1,0.1,10.6,3.4
		C326.4,463.9,325.8,462.3,327,461.2z"/>
	<path class="st50" d="M310.2,561.1c-0.6-5-1.3-10-1.9-15c-0.1-1.1-0.4-2.8,0.2-3.3c3.2-2.8,4.6-6.8,7.4-9.8c1.6,2.1,0,4.1-0.2,6.1
		c-0.7,7-3.1,13.6-4.1,20.4C311.5,560.5,311.3,561.2,310.2,561.1z"/>
	<path class="st51" d="M310.2,561.1c2.5-9.2,4.6-18.6,5.7-28.1c1.9-7.6,2.6-15.4,2.5-23.3c0-2-0.4-4,0.6-5.9
		c1.6,3.6-0.3,7.5,1.1,11.2c-0.3,12.9-3.7,25.3-6.3,37.8c-0.9,4.4-1.9,8.8-2.8,13.2c-1,0.3-1.4-0.1-1.1-1.1
		C310,563.6,310.1,562.4,310.2,561.1z"/>
	<path class="st52" d="M303.1,620.1c0.6,0.1,1.2,0.3,1.9,0.4c-0.8,3.5-3.2,5.5-6.3,6.8c-2.6,1-4.8,0.5-6-2.3c-0.1-1,0-2.1,0-3.1
		c-0.3-2.4-0.8-4.9,1.7-6.6c2.8-1.9,3.6,1.2,5.2,2.1C300.8,618.1,300.9,620.5,303.1,620.1z"/>
	<path class="st53" d="M331.1,253.1c1.3,0.7,2.5,1.4,3.8,2.1c0.4,1,0.8,1.9,1.2,2.9c0,0.3,0.1,0.6,0.1,0.9c0.5,2.9,0.4,5.9,0.1,8.8
		c-0.1,1.4,0.2,3.6-2.4,3.3c-2-3.1-1-6.5-1.2-9.7c-0.2-4.8-2.9-7-7.5-5.8c-1.9,0.5-3.7,1.3-5.4,2.1c-4.4,1.6-9,2.3-13.6,2.6
		c-2.2,0.2-4.4-0.3-6.2-1.5c-2-1.4-0.4-2.1,0.8-2.7c3.6-0.7,7.3,0,10.9-1c1.8-0.2,3.6-0.7,4.6-2.5c0.3-0.4,0.7-0.6,1.1-0.7
		c1.3,0.1,4.2,3.5,2.8-1.6c-0.6-2.1,1.3-1.8,2.5-1.2C325.6,250.4,328.5,251.4,331.1,253.1z"/>
	<path class="st54" d="M119.1,441.1c-1.6,0.8-0.2,3.4-2.4,3.8c0.9-6.6-1.2-12.8-2.7-19.1c-2.2-9.5-4.7-19-7-28.5
		c-0.4-1-0.5-1.9,0.2-2.8c3.8,5.5,3.9,12.3,5.6,18.4C115.3,422.3,117,431.8,119.1,441.1z"/>
	<path class="st55" d="M264.4,281.4c-0.3-1.1,0-2.4-1.1-3.2c0.8-5.9,2.5-11.6,5.5-16.8c1.5-2.6,1-5.5,1.6-8.2
		c0.3,0.3,0.5,0.6,0.8,0.9c2.8,2.8,2.1,6.4,2.5,9.8c0.7,5.5,1.9,11,2.2,16.6c-0.2,1.1-0.7,2-1.5,2.8c-2.7,0-2.3-2.2-2.7-3.8
		c-1.2-4-1-8.2-2.4-12.1c-1.3,3.6-2.6,7.2-3,11C266.2,279.6,266,281,264.4,281.4z"/>
	<path class="st56" d="M425.9,360.2c-0.3,1.3,3.5,2.2,0.3,3.7c-2.7-3.9-6.3-6.9-9.8-9.9c-7.2-6.1-13.1-13.2-17.7-21.4
		c-1.1-1.9-3.1-3.8-1.6-6.5c0.4,0.2,0.7,0.6,0.8,1c3.2,7.6,7.9,14.2,13.7,19.9C416.3,351.6,421.2,355.8,425.9,360.2z"/>
	<path class="st57" d="M463.1,246.1c-1.7-1.5-3.4-3-5.3-4.6c-1.7,2.4-1.1,5.1-1.7,7.5c-2,0.1-1.2-1.2-1.1-2.2
		c1.7-8.7-4.7-15-6.6-22.7c2.6-1.7-0.4-4.5,1.9-7c1.2,8.1,1.4,16.2,7.9,21.8c2.6,3.4,5.7,6,9.8,7.4c0.2,1.5-0.9,1.5-1.9,1.7
		C464.7,247.9,463.6,247.5,463.1,246.1z"/>
	<path class="st58" d="M468,559c-1.5,13.6,0.8,27.6-3.7,41c-0.3,0.8-0.7,1.5-1,2.2c-0.6,0-0.7-0.7-1-1c4.2-12.4,2.4-25.3,3.8-38
		c0.2-2.1-0.4-4.4,1-6.3C467.9,557.4,467.4,558.4,468,559z"/>
	<path class="st59" d="M304.2,465.2c-6.6,1.1-12.7,4-19.2,5.7c-2.2,7.6-1.4,15.4-3,23.1c0-5.6-0.8-11.4,0.2-16.8
		c1-5.8-1.2-6.8-5.9-6.3c-0.1-0.3-0.3-0.7-0.4-1c-0.1-0.6-0.3-1.2,0-1.9c0.3-0.3,0.7-0.4,1.1-0.2l0.4,0c3.9,2.6,7.7-0.1,11.5-0.7
		c2.8-0.4,5.7-1.7,8.4-3.1c3.4-1.3,6.8-3.2,10.7-1.7c0.5,0.4,0.6,0.8,0.3,1.4C306.8,464.4,305.5,464.8,304.2,465.2z"/>
	<path class="st60" d="M99.3,264.1c-0.4,10.3,1,20.7-2,30.9c-0.4,1.4-0.9,2.8-1.4,4.2c-0.9,0-1.3-0.3-0.9-1.3
		c1.5-5.5,2.5-11.1,2.4-16.9c1.2-5.4,0.7-10.9,0.8-16.3c0.2-9.8,1.7-12.1,11-15.7c0.1,0.2,0.2,0.4,0.2,0.7c-0.2,0.8-0.8,1.1-1.5,1.4
		c-0.8,0.7-1.7,1.4-2.5,2C100.7,255.3,100.5,260,99.3,264.1z"/>
	<path class="st61" d="M443.1,257.1c-6.7,2.6-13.8,4.4-18.9,9.9c-3.4,2.5-4.1,6.6-5.9,10c-1.9,3.6-3.2,7.5-6.3,10.4
		c-0.5,0.1-0.9-0.1-1.2-0.5c4.5-9.2,6.7-19.9,17-25.3c4.3-2.3,8.8-3.7,13.3-5.3C441.9,255.9,442.8,256,443.1,257.1z"/>
	<path class="st62" d="M107.2,394.6c-0.1,0.9-0.2,1.8-0.2,2.8c-4.2-7.9-8.7-15.5-8-25.1c0.5-6.2,1.9-11.6,6-16.2
		c0.6,1.7-0.6,3.1-0.9,4.6c-3.3,8.8-3.1,17.5,0.8,26c0.8,1.7,1,3.5,2,5.1C107.1,392.7,107.1,393.7,107.2,394.6z"/>
	<path class="st63" d="M293.3,561c-2-15.7-4-31.4-6-47.2c0.5-0.1,1-0.1,1.5-0.2c2.4,14.3,4.2,28.8,5.6,43.2
		C294.3,558.3,295.8,560.1,293.3,561z"/>
	<path class="st64" d="M443,495c-1.4-1.1-0.5-2.8-1-4.2c0.6-10.2,0.1-20.3-1.1-30.4c-0.2-1.6,0.1-3.4-1.6-4.5
		c-0.6-0.5-0.8-1.2-0.8-1.9c0.1-0.5,0.3-0.9,0.7-1.3c0.7-0.3,1.4-0.3,2,0.3C443.4,467,445.1,480.9,443,495z"/>
	<path class="st65" d="M125,614.1c0.1,0.3,0.2,0.7,0.3,1c0.3,1.1-0.2,1.7-1.2,2.1c-6-0.8-3.5-4.9-3.1-8.1c2.9-9.3,4.2-19,7.9-28.1
		c0.2,4.7-0.2,9.4-1.6,14c-0.1-0.1-0.3-0.2-0.4-0.3c-0.1-0.1-0.3-0.2-0.4-0.3c-0.1,5.4-2,10.5-2.5,15.8
		C123.9,611.6,123.2,613.1,125,614.1z"/>
	<path class="st66" d="M485.3,324.2c0.9,0.4,1.7,1,1.9,2.1c2.5,13.1,7.2,25.1,16.5,35c-4.7-0.4-5.9-4.9-8.8-7.4
		c-0.8-0.7-1.1-1.9-1.8-2.9l0,0C487.9,342.9,485.3,333.9,485.3,324.2z"/>
	<path class="st67" d="M493.2,351c3.7,3.3,6.1,7.9,10.6,10.3c3.2,3.3,4,7.5,4.3,11.9c-2.2-0.2-3.2-2.2-4.8-3.3
		c-1.1-4.7-3-9.1-6.4-12.6C495.1,355.5,493.2,353.8,493.2,351z"/>
	<path class="st68" d="M303.3,519.3c-0.7-2.6,0.4-5.5-1-8c0-12.3,0-24.7,0-37.1c0.3,0.2,0.6,0.3,0.7,0.5c0.2,0.5,0.2,1,0.3,1.4
		c-0.4,12.6,1.4,25.1,0.7,37.8C304,515.7,304.5,517.6,303.3,519.3z"/>
	<path class="st69" d="M160.9,499.1c0.4,0,0.8,0,1.2-0.1c-1.9,13.5-6.5,26.3-11,39c-0.4,0.1-0.9,0.2-1.1-0.3
		c-0.1-0.2,0.1-0.4,0.3-0.7C153.8,524.4,158,511.9,160.9,499.1z"/>
	<path class="st70" d="M159.2,316c7.5,8.1,11.3,17.8,11.9,28.8c-0.6,0.1-1.2,0.2-1.8,0.3c-0.2-0.7-0.3-1.5-0.5-2.2
		c-1.3-1.8-1.5-4-2.1-6.1c-1.4-6.8-6-12-9-18c-0.1-0.5-0.2-0.9-0.1-1.4C157.9,316.6,158.4,316.2,159.2,316z"/>
	<path class="st71" d="M347.3,289c-2.2,11.9-2,23.9-3,35.9c0,1.4-0.5,1.6-1.6,0.8c-0.8-1.1-1-2.5-1-3.8c0.4-12.8,0.9-25.5,3-38.2
		c0.1-0.8,0.5-1.6,0.9-2.3c3-1.2,1.6,1.4,2,2.4C347.5,285.6,347.9,287.3,347.3,289z"/>
	<path class="st72" d="M484.2,224.1c1.6-4.6,0.4-9.5,1.2-14.2c2.1,0.1,1.7,1.8,1.7,2.9c-0.5,9.8,0.1,20-7.6,27.9
		c-1.1,1.1-1.6,2.9-2.3,4.3c-1.9,0.2-1.4-0.9-1.1-2C479.4,236.9,484.8,231.8,484.2,224.1z"/>
	<path class="st73" d="M150.3,537.1c0.3,0.3,0.5,0.7,0.8,1c-1.4,3.6,0.5,6.8,1.1,10.1c-2.4-3.3-5.4-5.4-9.8-6
		c-3.5-0.5-4.7,0.3-4.9,3.6c-0.1,1.2,0.2,2.7-1.6,4.1c0-2.6,0-4.7,0-6.8c0-3-4.6-4.4-2.6-8c0.6-0.6,1.2-0.6,1.8,0c0,0.6,0,1.2,0,1.8
		c5.1,3.4,10.3,3.8,14.1,1.1C149.6,537.6,149.9,537.3,150.3,537.1z"/>
	<path class="st74" d="M472,448.3c-0.4,0.3-0.7,0.6-1.1,0.9c-2.7,0.1-6.5-4.7-7.8,1.8c0.4,1.4,1.5,3.1-1.3,3.2l-0.4,0l-0.4,0
		c-0.8-0.4-0.5-1.4-1-1.9c-0.2-0.3-0.4-0.5-0.6-0.8c-1.8-2-5.9-3.6-4.3-6.4c1.5-2.7,5.5-1.5,8.3-0.7
		C466.4,445.4,469.2,447,472,448.3z"/>
	<path class="st75" d="M447.3,552c0.3-0.7,0.7-1.3,1-2c2.5,10,2.6,20.1,1.4,30.2c-0.4,3.7,1.4,6.7,0.4,10.1
		C447.9,577.6,449.6,564.6,447.3,552z"/>
	<path class="st76" d="M544.1,243c1.1,5.4,3.3,10.8,0.1,16.3c0.7-4.6-3.5-0.1-4.1-2.2c1.4-1.4-0.7-3.7,1.1-5c2.2-2.7-1.1-5.3-0.1-8
		C541.9,242.9,542.2,240.5,544.1,243L544.1,243z"/>
	<path class="st77" d="M485.3,324.2c1.2,9.4,4.6,18.1,7.9,26.8c-0.7-0.3-1.4-0.6-2.1-1c-4.8-7.8-6.3-16.6-7.1-25.5
		c-0.2-1.9-0.5-4,1-5.7C485.1,320.7,485.2,322.5,485.3,324.2z"/>
	<path class="st78" d="M309.9,564.9c0.4,0.4,0.7,0.7,1.1,1.1c-2.6,12.2-2.3,24.7-4,37c0,0-0.4,0-0.4,0s-0.4,0-0.4,0
		C307.4,590.3,305.9,577.3,309.9,564.9z"/>
	<path class="st79" d="M300.4,642.9c-1,0.1-2,0.1-3,0.2c-3.5,0.3-6.8-0.4-8.4-3.7c-1.8-3.7-0.8-7.3,2-10.4c1.5,1,1.3,2.5,1.6,4
		c0.2,1.6,0.6,3.1,1.5,4.5C295.3,640.3,299.3,639.9,300.4,642.9z"/>
	<path class="st80" d="M460.1,188.1c0.1,0.3,0.1,0.6,0,0.9c-8.9,1.5-12.6,7.5-14.3,15.6c-0.7,3.5-2.3,6.8-3.5,10.3
		c0.2-7.6,2.6-14.6,5.9-21.3C450.5,189,455.3,188.1,460.1,188.1z"/>
	<path class="st81" d="M465.1,197.1c0.4-2.3,1.3-1.1,2.2-0.4c4.4,3.4,8.7,6.9,13.8,10.8c-2.5-0.2-4.2-0.3-5.9-0.5
		C471.4,204.2,467.2,201.7,465.1,197.1z"/>
	<path class="st82" d="M541.3,252.1c-0.7,1.6,1.4,3.8-1.1,5c0.1-6-2.9-9.8-8.6-12c-0.2,3.7,3.9,4.2,4.8,6.9c0.3,1-0.2,1.3-1.1,1
		c-0.7-0.7-1.3-1.4-2-2.1c-2.2-1.1-0.9,2.9-2.9,2c-0.1-0.5-0.3-1-0.2-1.4c0.7-2.8-2.8-7.2,1.3-8.1c3.4-0.7,6.4,3.1,8.8,6
		C540.8,250.1,540.9,251.1,541.3,252.1z"/>
	<path class="st83" d="M276.3,210c1.7,9.8,1.2,19.5-0.7,29.1c-0.1,0.7-0.5,1.7-1.6,1c2.1-8.6,0.9-17.4,1.3-26.1
		C276.3,212.8,275,211,276.3,210z"/>
	<path class="st84" d="M462,557.9c-0.9-0.5-1.5-1.5-1.5-2.4c1-9.5-1.6-19-0.2-28.5c0.6-0.5,1.1-0.4,1.6,0.1
		C462,537.3,462,547.6,462,557.9z"/>
	<path class="st85" d="M457.1,643.1c-8-0.7-9.4-4-4.9-10.7c0.9-1.3,1.2-2.9,1.8-4.4c2.4,2.2,1.2,5.2,1.6,7.9
		C454.9,638.5,457.9,640.4,457.1,643.1z"/>
	<path class="st86" d="M457.1,643.1c-1.3-1.9-2.9-3.6-2.8-6.1c0.3-0.6,0.5-1.3,1.4-1.2c2,0.9,1.7,3.5,3.5,4.5
		c4.2,1.2,6.1-1.7,8.3-4.5c2.1-2.8,1.5-6.7,4.3-9.1c0.5-0.1,0.9,0.1,1.3,0.4c-0.6,6.7-3.2,12.2-8.9,16.1
		C461.8,643.6,459.4,644.6,457.1,643.1z"/>
	<path class="st87" d="M473.1,505.2c-1.1,12.3-1.7,24.7-4,36.9c-0.3,0.4-0.6,0.4-0.9,0.1c1.2-11.5,1.7-23,3.7-34.4
		C472.2,506.8,472.1,505.8,473.1,505.2z"/>
	<path class="st88" d="M347.4,284.5c-0.3-1.2,0-2.5-1.1-3.4c-1.3-0.9-1.3-2.3-1-3.6c1.7-6.9-1.4-11.5-6.9-15
		c-0.8-0.5-1.6-1.1-2.3-1.9c-0.5-0.7-0.5-1.4-0.3-2.1c0,0,0.3-0.3,0.3-0.3c10.5,4.4,13,8.5,12.2,19.8c-0.1,2-0.2,4-0.3,5.9
		C348,284.2,347.7,284.4,347.4,284.5z"/>
	<path class="st89" d="M287.3,618.1c-2.6-3.7-0.9-7.3,0.1-10.9c0.7-2.4,1.3-4.8,1.9-7.2c0.9-1.7,2.2-2.2,3.8-0.9l0,0
		c0.5,1.1,0.2,2.2-0.1,3.3c-0.8,2.8-2.1,5.4-2.9,8.2c-0.1,0.5-0.2,0.9-0.4,1.3C288.7,614,290.5,617.1,287.3,618.1z"/>
	<path class="st90" d="M470.3,187.3c-2,0.6-4,1.1-6.1,1.7c5.8-6.3,14.8-6,19.9,0.5c1.5,1.9,3.3,3.7,5,5.5c0.3,0.3,0.3,0.6,0.2,0.8
		c-0.1,0.3-0.2,0.4-0.3,0.4c-1.7-1.5-3.9-2.7-5.1-4.6C480.6,186.3,476,185.1,470.3,187.3z"/>
	<path class="st91" d="M179.2,375.2c-3.7-1.7-1.3-5.1-2.1-7.7c-0.4-0.6-0.4-1.1,0.2-1.6c3-1.5,2.3-4.4,2.7-6.9
		c0.4-3.2,1-6.3,2.8-8.8c0.4,0.1,0.9,0.3,1.3,0.4c-1.2,4.4-2,9-3.8,13.1c-1.4,3.1-1.2,5.6-0.2,8.4
		C179.3,373.1,180.1,374.3,179.2,375.2z"/>
	<path class="st92" d="M300.4,642.9c-2.6-1.4-5.7-1.9-7.3-4.8c1.8-0.9,1.8-1,3.2-0.1c3,1.9,6.2,2.7,9.7,2.2c2.6-1.2,1.8-3.8,2.5-5.8
		c0.8-2.1-0.3-4.8,2-6.5c1.3,4.3,1,8.8,0.8,13.2C307.9,643.9,304.1,643.1,300.4,642.9z"/>
	<path class="st93" d="M184.2,345.3c1-0.1,1.9-0.1,2.9-0.2c0.3-5.6-1.4-11-2-16.6c-0.4-3-0.8-6.1-1.4-9c0.2-0.8,0.8-1.3,1.6-1.5
		c2.5,10,4.3,20,3.5,31.1C186.7,347.3,185.5,346.3,184.2,345.3z"/>
	<path class="st94" d="M441.1,453.1c-0.6,0-1.3,0.1-1.9,0.1c-0.5-0.5-0.6-1.1-0.6-1.7c0-1.5,1.8-3.7-0.2-4.3
		c-2.7-0.8-1.5,2.6-2.7,3.6c-0.2,0.1-0.4,0.3-0.6,0.4c-2.4-6.1-1.7-7.6,3.2-8.7c3.4-0.8,3.7,1.9,5,3.6c0.5,1,0.8,1.9-0.2,2.8
		C442.4,450.3,441.8,451.7,441.1,453.1z"/>
	<path class="st95" d="M144.2,584c0.4,0.1,0.7,0.2,1.1,0.3c-0.1,0.9-0.1,1.8-0.2,2.7c-1.5,3.8-1.2,7.8-0.5,11.7
		c0.8,4.8,0.7,9.5,1,14.3c0.2,3.3-1.2,4.6-4.4,3.9c-0.5-0.7-0.6-1.3,0.3-1.7c0.5,0,1.1-0.1,1.6-0.1c1.6-4.2-0.8-8-0.9-12.1
		c-0.3-1.4-0.4-2.9-0.4-4.3C141.9,593.7,141.2,588.5,144.2,584z"/>
	<path class="st96" d="M148.4,553.1c1-0.9,1-2.5,2.5-2.9c2.6,1.6,4.5,10,2.7,12.1c-0.3,0.3-0.8,0.5-1.3,0.5c-0.8,0-1.1-0.7-1.2-1.4
		c-0.2-1.7,0.4-3.3,0.5-4.9c0.3-2.9-1.1-2-2.3-0.6c-0.4-0.5-0.9-0.9-1.3-1.4C147.5,553.9,147.6,553.4,148.4,553.1z"/>
	<path class="st97" d="M135.1,535.1c-0.6,0-1.2,0-1.8,0c-0.1-0.4-0.2-0.9-0.2-1.3c-0.4-7.7,2.2-15,2.1-22.7c0.8-0.1,1.4,0.2,1.4,0.9
		c-0.1,6.7,0.9,13.5-1.2,20.2C135.2,533.2,135.2,534.1,135.1,535.1z"/>
	<path class="st98" d="M494.2,318.1c1.8-2.8,0.2-6.1,1.9-9c0,5.1-0.1,10.2,0,15.3c0,1.9-0.7,4,1,5.7c0,1.7,1.4,2.6,2,4
		c-0.3,0.4-0.4,1-1.1,1.1C492.9,330.3,494.2,324.1,494.2,318.1z"/>
	<path class="st73" d="M148.4,553.1c-0.1,0.5-0.2,1-0.3,1.4c-5.5-2.1-11.2-1.3-18.1-1.3c2.4-1.2,3.7-1.8,5.1-2.5
		c0.5,0,1,0.1,1.5,0.1c4.4,0.7,8.8,1.3,8.8-5.9C147.4,547.9,144.2,551.8,148.4,553.1z"/>
	<path class="st99" d="M462.3,601.2c0.3,0.3,0.7,0.7,1,1c-0.1,1-0.2,2-0.2,2.9c-1,7.5-3.9,14.3-7,21c-1,0.3-1.4-0.2-1.7-1
		C455.9,616.8,460.2,609.4,462.3,601.2z"/>
	<path class="st100" d="M462,527c-0.5,0-1.1,0-1.6-0.1c0.3-9.3,0.7-18.5,1-27.8c2.5,1.9,1,4.3,0.9,6.5
		C462.2,512.7,462.1,519.9,462,527z"/>
	<path class="st101" d="M331.6,246.1c-7.8-2.9-8.8-10-10.4-16.7c-0.4-1.8-0.7-3.9,0.7-6.4c1.9,8.3,2,16.9,9.3,22.2
		C331.2,245.5,331.4,245.8,331.6,246.1z"/>
	<path class="st102" d="M293.3,561c1.3-1.1,0.5-2.8,1-4.1c2.1,7,0.1,13.8-0.6,20.7c-0.1,1.5-0.5,2.9-0.7,4.4c-0.9,0.3-1.3,0.1-1-1
		C292.4,574.3,292.9,567.6,293.3,561z"/>
	<path class="st103" d="M473.1,627c-0.4,0-0.7,0-1.1,0c-1.2-1.2-1.1-2.8-1.3-4.2c-0.2-3.9,0.1-7.8,1.3-11.6c0.1-2,0.1-4,0.2-6
		c0.3,0,0.7,0,1,0c0.1,0.3,0.2,0.7,0.3,1c0.6,5.6,1.2,11.2,0.8,16.9C472.5,624,473.7,625.8,473.1,627z"/>
	<path class="st104" d="M415,427.9c0.3,0.3,0.6,0.7,0.9,1c1,3.4-1.7,5.6-2.8,8.3c-2,5-4,9.9-6,14.9
		C408.3,443.5,411.4,435.6,415,427.9z"/>
	<path class="st105" d="M289.2,611.1c0.2-3.3,2-6.2,3.1-9.2c1.8-0.3,2,1.3,2.8,2.2c1.2,1.7,0.7,3.3-0.2,4.8c-0.2,0.4-0.5,0.7-0.9,1
		C292.4,610.3,291.2,612.3,289.2,611.1z"/>
	<path class="st106" d="M443.1,449c0.1-0.9,0.1-1.9,0.2-2.8c1.1,1,2.4,1.8,3.2,2.9c4.6,6.1,5.9,6.4,13.7,3.2c0.9,0.3,0.9,1.2,1,2
		c-8,2.6-12,1.4-17.1-4.9C443.8,449.2,443.4,449.1,443.1,449z"/>
	<path class="st107" d="M343.3,326c0.3-0.4,0.7-0.7,1-1.1c2.5,8.5,2.1,17.2,1.7,25.9c-1-0.7-0.6-1.9-1-2.8
		c-1.8-6.2-1.5-12.6-2.9-18.9C341.9,328,342.3,326.8,343.3,326z"/>
	<path class="st108" d="M497.8,451.2c0.7-0.1,1.5-0.1,2.2-0.2c-1.6,6.8-3.1,13.5-4.7,20.3c-0.4-0.4-0.7-0.8-1.1-1.2
		c1.1-4.9,2.2-9.7,3.3-14.5C497.9,454.1,498.6,452.7,497.8,451.2z"/>
	<path class="st109" d="M175.2,208.9c-0.8-1.9-4.8-0.7-4-4.1c5.8,3.1,12.2,5.4,17,10.2c0.3,1-0.1,1.3-1.1,1.1
		C183.6,213,179.5,210.8,175.2,208.9z"/>
	<path class="st110" d="M526.1,269.3c-3.2,6.3-6.5,12.6-9.7,19c-0.7-0.1-1.2-0.5-1.5-1.1c-0.1-1,0.5-1.6,1.1-2.2
		C519.3,279.7,521.5,273.8,526.1,269.3z"/>
	<path class="st111" d="M88.3,336c1.3,6.3,1.7,12.7,1.9,19.1l0,0c-2.9-5.4-3-11.2-3-17.1C87.9,337.5,87.4,336.4,88.3,336z"/>
	<path class="st112" d="M482.2,612c-0.6-1.2-1.1-2.3-1.7-3.6c-2.2,1.2-0.8,4.1-3.2,5.1c-0.4-4,2.5-8-1.1-12.6
		c4.4,1.7,4.3,5.6,6.8,7.2c0.1,0.9,0.2,1.8,0.2,2.8C483.8,612,483.2,612.2,482.2,612z"/>
	<path class="st113" d="M398,327.1c-0.3-0.3-0.6-0.7-0.8-1c-1.6-7.8,2.8-13.4,6.8-19.2c0.1,0.1,0.3,0.2,0.4,0.4
		C401.9,313.8,397.5,319.7,398,327.1z"/>
	<path class="st114" d="M292,581c0.3,0.3,0.7,0.6,1,1c-1.4,5.7-2.3,11.4,0.1,17.2c-1.3-0.1-2.6,0-3.8,0.9
		C291.1,593.8,289.1,587,292,581z"/>
	<path class="st21" d="M515.9,284.9c-0.2,0.8-0.4,1.5-0.6,2.3c-0.4,3.7-1.6,7-5.2,8.8l0,0c-1.4-2.6-0.9-5,1-7.1
		c0.9-0.9,1.8-1.8,2.7-2.7c0.1-1.4,0.2-2.7,0.4-4.1C514.8,283,515.4,284,515.9,284.9z"/>
	<path class="st115" d="M463.1,486.9c0-7.9,0-15.8-0.1-23.8c-0.1-1.5-1.5-3.2,1-4c0.3,9.6,0.8,19.3,0,28.9
		C463.1,488.2,462.5,488,463.1,486.9z"/>
	<path class="st116" d="M94.9,297.8c0.3,0.4,0.6,0.8,0.9,1.3c-0.5,3.5-3,6.4-2.8,10c-1,2.6-2,5.3-3.1,7.9c-1,0.2-1.4-0.1-1.2-1.2
		C90.7,309.8,92.3,303.7,94.9,297.8z"/>
	<path class="st117" d="M530.3,252.9c1.6,0.2-0.1-4.3,2.9-2c0.2,5.8-1.1,11-5.4,15.2C528.3,261.7,532.7,257.9,530.3,252.9z"/>
	<path class="st118" d="M187.1,216.1c0.4-0.4,0.7-0.7,1.1-1.1c4.7,4.3,7,9.7,6.9,16.1l0.1-0.1C192.9,225.9,191.3,220.3,187.1,216.1z
		"/>
	<path class="st119" d="M463.1,486.9c0.3,0.4,0.6,0.7,0.9,1.1c0,0.9,0,1.9,0,2.8c-0.9,2,0.2,4.2-0.7,6.2c-0.7,2.8,0.1,5.8-1.1,8.6
		c-0.4-2.1,0.6-4.5-0.9-6.5C461.8,495.1,461.7,490.9,463.1,486.9z"/>
	<path class="st120" d="M487.3,244.4c-0.3-0.7-0.7-1.4-1-2.1c1.2-3.7,2.5-7.5,3.7-11.2c-0.7-2.5,0.6-4.6,1.3-6.8
		c0.3,0.3,0.7,0.6,1,1C491.5,231.8,489.6,238.1,487.3,244.4z"/>
	<path class="st121" d="M185.3,317.9c-0.3,0.4-0.7,0.7-1,1.1c-2.6-5.4-5.4-10.7-2.9-16.9c0.3-0.4,0.6-0.8,0.9-1.2
		C183.3,306.6,184.3,312.3,185.3,317.9z"/>
	<path class="st52" d="M289.2,611.1c1.9-0.1,2.7-2.6,4.8-2.1c0.7,1.5,0.1,2.8-0.7,4.1c-0.1,0.7-0.1,1.3-0.2,2
		c-0.5,1.3-1.3,2.4-2.9,2.5C287.3,615.8,288.9,613.4,289.2,611.1L289.2,611.1z"/>
	<path class="st122" d="M342.2,416c-0.8,1.7-1.6,3.4-2.5,5.3c-1-1.4-0.2-2.9-0.6-4.3c-1.1-2.4,0-3.9,2-5c0.9-1,1.9-1.8,2.9-0.1
		C343.4,413.3,342.8,414.7,342.2,416z"/>
	<path class="st123" d="M291.2,617.1c0.2-1.1,0.4-2.1,1.8-2c0.4,0,0.8,0.1,1.2,0.1c-0.4,2.1-0.8,4.3-1.2,6.4
		c-0.1,0.6-0.4,0.7-0.9,0.5c-0.3-0.3,0-1.8-0.9-1c-2,1.8-2.4,0.2-3.1-1.1C288.7,618.5,290.2,618,291.2,617.1z"/>
	<path class="st124" d="M177.2,365.9c-0.1,0.5-0.1,1-0.2,1.6c-3.5-3.6-4.9-8.5-7.5-13c0.9,0.5,1.7,1,2.6,1.4
		C173.8,359.3,175.5,362.6,177.2,365.9z"/>
	<path class="st125" d="M98.3,197.3c-3.1,2.2-6.2,4.3-9.3,6.5c1.8-3.9,4.7-6.3,8.8-7C98.1,197,98.2,197.1,98.3,197.3z"/>
	<path class="st126" d="M482.2,612c0.3-0.4,0.7-0.8,1-1.1c1.7,0.9,0.6,3.1,2,4.1c-0.5,2.7,1.2,6-2.1,8.1
		C482.7,619.4,483.9,615.6,482.2,612z"/>
	<path class="st127" d="M476,242.9c0.2,0.7,0.2,1.6,1.1,2c-0.8,1.4-0.5,3.3-2.2,4.2c-1.2-1.7-2.5-0.7-4-0.4c-1.8,0.4-4,1.2-4.9-1.5
		c0.7-0.3,1.3-0.6,2-0.9C471.3,246.5,473.5,244.5,476,242.9z"/>
	<path class="st128" d="M276.3,210c-0.4,1.3,0.4,3-1,4c0.5-5-2.3-10-0.2-15c0.3,0.7,0.7,1.3,1,2C276.1,204,276.2,207,276.3,210z"/>
	<path class="st129" d="M87.1,212c1.1,3.5-3.2,3.4-3.9,5.7c-1.5,1.7-3,3.3-5.3,5.8C79.7,217.7,83.3,214.7,87.1,212z"/>
	<path class="st130" d="M468.3,542.1c0.3,0,0.6-0.1,0.9-0.1c-0.4,5.6-0.8,11.3-1.2,16.9c-0.3-0.7-0.6-1.4-0.9-2.1
		C466.4,551.9,468.2,547.1,468.3,542.1z"/>
	<path class="st131" d="M329.9,444.2c1.4-3.9,2-8.1,5.2-12.7c-0.5,4.9-3.2,7.8-3,11.5c-0.4,0.6-0.7,1.3-1.1,1.9
		c-0.2,0.4-0.6,0.5-1,0.3c-0.2-0.2-0.3-0.5-0.3-0.7C329.8,444.3,329.9,444.2,329.9,444.2z"/>
	<path class="st132" d="M123.2,484.3c0,3.5,0,7.1,0,10.6c-1.5-5.2-1.9-10.5-1.9-15.9c0.6,1,1.2,2.1,1.8,3.1
		C123.1,482.9,123.2,483.6,123.2,484.3z"/>
	<path class="st133" d="M430.2,352.8c0-0.6,0-1.2,0.1-1.8c2.2,0,4.4,1.9,6.5-0.2c1.3,0.1,2.1,0.9,2.7,1.9c0,0.2,0.1,0.5,0.1,0.7
		c-0.1,0.2-0.2,0.4-0.3,0.6C435.9,355.5,432.6,357.2,430.2,352.8z"/>
	<path class="st134" d="M292.2,622.1c0.3-0.2,0.6-0.3,0.9-0.5c0,1.1,0.1,2.3,0.1,3.4c1,1.7,1.4,3.5,0.9,5.5
		c-0.6,1.4-0.6,3.3-2.8,3.5c-0.1-1.6-0.2-3.3-0.4-4.9C291.4,626.7,291.8,624.4,292.2,622.1z"/>
	<path class="st135" d="M88.9,315.9c0.4,0.4,0.8,0.8,1.2,1.2c-1,3-0.3,6.3-1.8,9.2c-0.6-0.1-0.7-0.7-1-1
		C86.9,321.9,87.3,318.8,88.9,315.9z"/>
	<path class="st94" d="M439.1,453.9c0,0.7,0.1,1.4,0.1,2.1c-0.5,0.9-1,1.8-2.1,2.1c-2.4-1.8-0.9-4.7-2-6.9c0,0,0.1-0.1,0.1-0.1
		C438.2,449.7,437.9,452.8,439.1,453.9z"/>
	<path class="st136" d="M320.1,515c-1.8-3.6-0.2-7.5-1.1-11.2c0.1-1.9,0.1-3.8,0.2-5.8c0.4,0.7,0.7,1.4,1.1,2.1
		C320.2,505.2,320.1,510.1,320.1,515z"/>
	<path class="st106" d="M464,459.1c-1.3,1.1-0.5,2.7-1,4c-1.5-2.8-0.5-6-1.1-8.9c1.3-0.7,1-2.1,1.3-3.2
		C464.3,453.6,464.3,456.4,464,459.1z"/>
	<path class="st137" d="M454.9,246.8c0.4,0.7,0.7,1.5,1.1,2.2c-1.1,2.7,0.3,7.1-4.8,7.1C454.3,253.7,453.4,249.8,454.9,246.8z"/>
	<path class="st138" d="M179.2,375.2c0.1-1-0.3-2.2,0.8-3c1,3.7,2.2,7.4,0.4,11.1c-0.5-1.1,0-2.5-1.2-3.3c-0.6-0.6-0.7-1.3-0.2-2
		C179.1,377.1,179.1,376.1,179.2,375.2z"/>
	<path class="st139" d="M493.2,307.4c0,0.2,0.1,0.5,0.1,0.7c-2.3,2.5-3.1,5.5-3.4,8.7c-1.8,0.2-1.3-0.9-1.1-1.9c0.2-1,0.3-2,0.5-2.9
		c-0.4-2,0.8-3.5,1.7-5l0,0.1c0.6-0.7,1.1-1.7,2.3-1C493.7,306.6,493.6,307.1,493.2,307.4z"/>
	<path class="st48" d="M165.3,190.9c-1.8-1.6-4.5-2.2-5.3-4.9c3.6,0.9,6.1,3.4,9.3,5.3C167.5,193,166.5,191,165.3,190.9z"/>
	<path class="st105" d="M291.2,617.1c0.3,2.3-1.7,2.3-3.1,2.9c-0.3-0.6-0.6-1.3-0.9-1.9c1.9-2-0.2-5,1.9-7
		C289.8,613.1,287.5,616.1,291.2,617.1z"/>
	<path class="st140" d="M91.3,261c0.9,2.8,1.8,5.5,2.6,8.3c-2.4-1.9-3.4-4.4-3.7-7.3C90.6,261.6,90.7,261,91.3,261z"/>
	<path class="st141" d="M330.2,445c0.3,0,0.6,0,0.9,0c-0.2,3.8-0.5,7.6-1.7,11.3c-0.4-0.7-0.7-1.4-1.1-2.1c0.2-0.8,0.5-1.6,0.7-2.4
		C328.5,449.4,328.3,447,330.2,445z"/>
	<path class="st142" d="M498.1,335.1c0.4-0.4,0.7-0.7,1.1-1.1c1.5,2.2,3.7,2.3,6,2c0.3,0.3,0.7,0.7,1,1
		C502.8,339.4,500.3,337.6,498.1,335.1z"/>
	<path class="st143" d="M438.4,358.3c-0.7,1.9-1.1,4.1-2.2,5.8c-1.4,2.3-1.8,0.8-1.8-0.8c1-2,1.9-4,2.9-6
		C438.2,357,438.6,357.3,438.4,358.3z"/>
	<path class="st144" d="M488.9,315c0.4,0.6,0.7,1.2,1.1,1.9c-0.4,3-0.8,6-1.1,9.1C488.4,322.3,487.2,318.6,488.9,315z"/>
	<path class="st145" d="M87.3,325.2c0.3,0.3,0.7,0.7,1,1c0,3.3,0,6.6,0,9.8c-0.3,0.7-0.7,1.3-1,2C87.2,333.7,87.3,329.4,87.3,325.2z
		"/>
	<path class="st146" d="M88,227.2c0.5-0.7,1.2-1.2,2.1-1.1c1.4,1.3,0.2,3.2,1,4.6c1,2.6-1.4,0.9-2,1.6
		C87.4,230.8,88.1,228.9,88,227.2z"/>
	<path class="st48" d="M103.1,193.2c0-0.3,0.1-0.6,0-0.9c2.9-1.1,5.9-2.3,8.8-3.4c0.1,0.1,0.2,0.3,0.3,0.4
		C110.3,193,107.1,194.1,103.1,193.2z"/>
	<path class="st147" d="M489.2,196.2c0-0.4,0-0.8,0.1-1.2c2.4,1.4,3.9,3.4,4.8,6.5C491.2,200.5,490.7,197.8,489.2,196.2z"/>
	<path class="st148" d="M454.4,625.1c0.3,0.3,0.6,0.7,0.9,1c1.5,1.7,1.2,3.8,1.2,5.8c-0.1,1.5,0,2.9-1.1,4.1
		c-0.4,0.3-0.7,0.6-1.1,0.9c-0.1-3-0.2-6-0.3-9C454.1,627.1,454.2,626.1,454.4,625.1z"/>
	<path class="st111" d="M90.1,355.1c2.3,0.3,1.4,3.9,4,4c0.7,1.1,0.8,2.1-0.2,3.1C92.3,360,89.6,358.4,90.1,355.1
		C90.2,355.1,90.1,355.1,90.1,355.1z"/>
	<path class="st149" d="M446,220.2c0.2,0.6,0.5,1.3,0.7,1.9c-2.2,0.2-2.3-1.6-2.8-3c0.4-1.6-0.3-3.5,1.2-5.1
		C446.4,216.2,444.2,218.5,446,220.2z"/>
	<path class="st150" d="M182.2,234.1c-0.3-1-2-1.9-0.1-3c1.5,1.2,2.9,2.4,4.5,3.7C184.9,235.6,183.5,235.2,182.2,234.1z"/>
	<path class="st151" d="M91.3,261c-0.4,0.3-0.7,0.7-1.1,1c-0.1-1-0.2-1.9-0.4-2.9c-0.4-1.7-0.4-3.4,0-5.1c0.1-0.6,0.2-1.2,0.2-1.9
		c1.5,1,0.7,2.7,1.1,4C91.3,257.8,91.3,259.4,91.3,261z"/>
	<path class="st152" d="M491.2,307c-0.6,1.7-1.2,3.3-1.7,5c-0.7,0.3-1.5,0.7-2.2,1C487.9,310.7,489.1,308.6,491.2,307z"/>
	<path class="st153" d="M295.1,604.1c-0.9-0.7-1.9-1.5-2.8-2.2c-0.1-1,0.1-1.9,0.8-2.7C295.5,600.1,295.2,602.2,295.1,604.1z"/>
	<path class="st154" d="M94,362.2c0.1-1,0.1-2.1,0.2-3.1c2.2,2,1.2,4.8,2.2,7.6C94.3,365.4,94.2,363.7,94,362.2z"/>
	<path class="st155" d="M308.1,464c0-0.3,0-0.6,0-1c2.1-2.8,4.4-2.8,7-0.8c0,0.3,0,0.6,0,0.9C312.8,463.4,310.5,463.7,308.1,464z"/>
	<path class="st61" d="M414.2,291.6c-1-0.2-1.9-0.4-2.9-0.7c-2-1.2-2.3-2.5-0.4-4.1c0.2,0.2,0.4,0.3,0.6,0.5
		c0.9,0.9,1.4,2.2,2.7,2.7C414.2,290.5,414.2,291.1,414.2,291.6z"/>
	<path class="st156" d="M544.3,432.2c0.2-1.3,0.5-2.7,0.7-4c1.5,0.2,2.8,1.1,2.6,2.4C547.4,432.3,545.5,432,544.3,432.2z"/>
	<path class="st113" d="M408.1,301.1c-0.5,2.5-2,4.4-3.8,6.2c-0.1-0.1-0.3-0.2-0.4-0.4C404.8,304.6,405.6,302.2,408.1,301.1
		L408.1,301.1z"/>
	<path class="st29" d="M544.2,243.1c-1.6-1.4-2.3,0-3.1,1c0.3-1.3-1-3.2,0.8-3.7C543.7,239.8,544.1,241.6,544.2,243.1z"/>
	<path class="st84" d="M461,564.1c0.6-1.6-0.7-3.6,1.1-5c-0.1,1.9-0.1,3.9-0.3,5.8c-0.1,0.6-0.8,0.6-0.4,0
		C461.5,564.8,461.2,564.4,461,564.1z"/>
	<path class="st157" d="M293.2,613.1c-0.4-1.5,0.3-2.8,0.7-4.1c0.3,0,0.7-0.1,1-0.1C295,610.6,295.8,612.6,293.2,613.1z"/>
	<path class="st14" d="M463.3,497.1c-0.1-2.1-0.4-4.2,0.7-6.2C464.1,493,464.8,495.1,463.3,497.1z"/>
	<path class="st158" d="M408.2,301.1c0-1.4-0.6-3,1.7-3.9C409.9,299,409.5,300.2,408.2,301.1C408.1,301.1,408.2,301.1,408.2,301.1z"
		/>
	<path class="st62" d="M106.5,352.1c1,1.9,0.5,3.2-1.4,4C104.5,354.4,105.6,353.2,106.5,352.1z"/>
	<path class="st133" d="M438.4,358.3c-0.4-0.4-0.7-0.7-1.1-1.1c0.6-1.1,1.3-2.1,1.9-3.2c0,0-0.1,0.1-0.1,0.1c2.1,1.2,2.1,1.3,0.1,4
		C438.9,358.1,438.7,358.2,438.4,358.3z"/>
	<path class="st159" d="M347.4,284.5c0.2-0.3,0.4-0.5,0.7-0.6c-0.1,1.8,0.7,3.6-0.7,5.2C347.3,287.5,347.4,286,347.4,284.5z"/>
	<path class="st6" d="M89.9,254c0,1.7,0,3.4,0,5.1C88.8,257.4,88.8,255.7,89.9,254z"/>
	<path class="st118" d="M195.1,231.1c1.2,1.2,1.3,2.5,0.6,4.1C194.7,233.8,195.4,232.3,195.1,231.1
		C195.2,231,195.1,231.1,195.1,231.1z"/>
	<path class="st47" d="M273.2,247.1c-0.1,1.4-0.8,2.4-2,3C271.1,248.7,271.1,247.1,273.2,247.1z"/>
	<path class="st15" d="M503.1,371.2c0,0.3,0,0.7,0,1c-0.2,0.5-0.1,1.1,0.2,1.4c8.8,6.7,14.1,15.9,18.8,25.5c3,7.8,6.4,15.1,13.9,20
		c4.3,2.8,3.8,6.2-0.6,9c-3.5,2.3-6.7,4.8-9.7,7.7c-5,2.6-9.5,6.5-15.6,6.3c-4.8,0-9.6,0.1-14.4,0.1c-1.8,0-3.8,0.1-4.4-2.3
		c-0.5-2.4,0.9-3.9,2.8-4.7c3.7-1.5,7.5-2.7,11.3-3.9c1.3-0.4,2.7-0.3,2.9-2.1c0.3-0.5,0.6-0.5,0.9,0c8.7-2.6,9.8-4.4,10.2-17.1
		c1.4-0.3,2.1,0.6,2.9,1.9c-5.2-8.3-10.6-16.1-16.7-23.3c-1-1.1-1.7-2.5-3.4-2.6c-0.5-4.8-4.9-8-5.4-12.9c-0.1-1.5-2.2-3-0.6-4.5
		c1.3-1.2,3.1-0.4,4.7,0.1C501.4,371,502.3,371,503.1,371.2z"/>
	<path class="st160" d="M466,247.2c3.2,2.1,5.9,0.2,8.6-1.4c0.8,1.1,0.3,2.2,0.3,3.3c-1.7,5.1-0.8,9.7,2.2,14
		c1.2,0.3,2.7,0.3,2.1,2.2c-0.7,2.1-1.9,3.7-4.3,3.7c-1.2-2.3-2.6-0.2-3.7,0.1c-4.8,1.6-8.6,0.2-12-3.2c0.3-1.6,0.3-2.9-0.8-4.4
		c-2.4-3.3-1.1-11.8,2-14.5c0.7-0.6,1.8-0.7,2.7-1C464.1,246.5,465,246.8,466,247.2z"/>
	<path class="st161" d="M431.2,295.3c-1-0.1-1.9-0.1-2.9-0.2c-2.3-1.8-3.4-3.4,0.6-4.5c2.6-0.8,3.7-2.4,2.5-5.3
		c-0.8-2,0.4-3.9,1.6-5.5c0.6-0.8,1.3-1.6,2.5-1.3c1.1,0.3,1.7,1.2,1.6,2.2c-0.9,10.3,4,20.2,1.6,30.8c-4.2-3.3-1.2-8.5-3.3-12.2
		c-0.2-0.1-0.4-0.3-0.6-0.4c-1.5-2.5-0.5-5-0.3-7.7C433.8,293,433.9,295.4,431.2,295.3z"/>
	<path class="st162" d="M510,442.1c5.3-1.8,10.4-4,15.1-7c5.1-2.6,10-5.9,16.1-3c-0.6,1.1-1.8,1.6-2.9,1.7c-8,0.6-14.8,4.6-21.9,8
		c-8.1,3.9-16.1,8-25,9.8c-4.4,0.9-8.8,1.5-13.1-0.5c8.4-1.6,17-2.7,25-5.8C505.6,444.2,508.1,443.7,510,442.1z"/>
	<path class="st163" d="M439.2,358.1c-0.5-1.3,1.7-2.7-0.1-4c0-0.4,0-0.7,0-1.1c-0.2-1.7,0.9-2.4,2.3-2.8c4.9,0.4,9.1,2.3,12.8,5.4
		c1.3,1.6,0.8,2.8-1,3.3c-1.6,0.5-2.1,1.4-1.9,2.9c-2.5,1.5-4.7,0.8-6.9-0.7C442.8,359.8,441.5,358.1,439.2,358.1z"/>
	<path class="st164" d="M501.9,388c1.4-2.9,2.4-0.1,2.9,0.5c4.6,5.8,9,11.7,13.4,17.7c2.4,3.2,4.5,6.7,6.1,10.5
		c-1.7-1.6-3.4-3.1-5.1-4.7C515,402.8,507.8,395.9,501.9,388z"/>
	<path class="st165" d="M439,427c1.2-11.6,2-23.4,4.2-34.9c0,0,0,0,0,0c2.8,5.5-0.1,11-0.4,16.5c-0.3,6.8-1.8,13.5-2.8,20.2
		C438.2,429,438.7,428,439,427z"/>
	<path class="st166" d="M466.2,428c-2.9-11.1-5.2-22.4-4.3-34c1.6,11,3.1,22.1,5.4,33C467.6,428,467.2,428.3,466.2,428z"/>
	<path class="st167" d="M414.1,290c-1.6-0.2-3.1-0.5-2.7-2.7c3.5-4.9,5.7-10.6,8.5-16c1-2,2-3.7,4.3-4.4c-3.7,6.5-5.4,14-10.3,19.9
		C412.9,288,413.5,289,414.1,290z"/>
	<path class="st168" d="M441.3,320c1.6,8.3,2.4,16.6,1,25c-0.1,0.2-0.3,0.5-0.4,0.7c-1.1,1-2,0.7-2.6-0.6
		c-0.5-6.6,0.3-13.2-0.2-19.8C439.9,323.5,439.5,321.3,441.3,320z"/>
	<path class="st169" d="M441.3,320c-0.5,1.7,0.3,3.6-0.9,5.1c-4.2-7-9.9-13.3-8.7-22.5c0.2-1.6,0.2-3.3,0.9-4.8
		c2-2.3,1.7,0.5,2.4,1.1c0,0,0.3,0.4,0.3,0.4C433.4,307.3,435.5,314.2,441.3,320z"/>
	<path class="st170" d="M501.2,415c-3.5-7-7.6-13.8-10.2-21.2c0.4-0.2,0.8-0.4,1.2-0.6c3.3,6.6,6.7,13.2,10,19.8
		C502.7,414.1,503.1,415.1,501.2,415z"/>
	<path class="st171" d="M476.6,328.1c-7.9,1.4-15-1.2-21.6-5.2C462,325.4,469.3,326.8,476.6,328.1z"/>
	<path class="st172" d="M491.9,255.2c2.2,3.3,0.7,7.2,1.5,10.7c-0.7,4.1-2.4,7.9-2.3,12.2c-1.5,0-0.9-1.7-1.9-2
		c-0.7-0.9-0.7-1.9-0.2-2.9c2.3-5.2,4.1-10.5,2.3-16.3C491.2,256.5,491.7,255.8,491.9,255.2z"/>
	<path class="st173" d="M444.3,361.2c2.3,0.2,4.6,0.4,6.9,0.7c0.6-0.5,1.1-0.9,1.7-1.4c0.9,1.2,0.2,2-0.6,2.8
		c-0.5,0-1.3-0.1-1.4,0.1c-2.4,6.3-7.2,2.9-11.2,2.8c1.7-1.9,4-0.6,6-1.2C445.5,363.6,443.4,362.9,444.3,361.2z"/>
	<path class="st174" d="M459.2,266c5.6,3.3,11.3,4.2,16.9-0.1c0.8,1.9-1,2.2-1.3,3.2c-7.2,3-13.6,1.9-18.8-4.2
		C457.1,265.3,458.1,265.6,459.2,266z"/>
	<path class="st175" d="M511.1,288.9c-0.3,2.4-0.7,4.8-1,7.1c-3.6-0.3-0.5-3.3-1.7-4.5c-2.6-0.2-4.2,4.2-7.3,1.5
		C504.1,290.9,506.7,287.5,511.1,288.9z"/>
	<path class="st168" d="M454.1,355.6c-4.3-1.7-8.1-4.7-13-4.6c-3.1-2.5,0.2-3.9,1-5.8c0,0,0.2-0.3,0.2-0.3
		C443.7,351.4,451.4,350.7,454.1,355.6z"/>
	<path class="st176" d="M496.8,295c-2.3-5.6-2.3-10.9,0.1-16.6c0.7,5.8-0.7,11.3,1.3,16.4c0.5,1,0,1.3-0.9,1.5
		C496.9,296,496.7,295.6,496.8,295z"/>
	<path class="st152" d="M496.8,295c0.2,0.3,0.3,0.6,0.5,0.9c1.4,4.9,0.5,7.3-4.1,10.3c-0.7,0.3-1.4,0.6-2.1,0.9
		c1.9-3.8,3.3-7.8,4.1-12C495.8,295.1,496.3,295.1,496.8,295z"/>
	<path class="st177" d="M413.1,437.2c0.9-2.8,1.9-5.6,2.8-8.3c1-2,2.1-4,3.1-6C420,428.9,416.7,433.1,413.1,437.2z"/>
	<path class="st178" d="M501.2,415c0.9-0.4,0.9-1.2,1-2c2.7,5.2,5.3,10.4,6.9,16c-0.3,0-0.6,0-0.9,0
		C505.9,424.4,503.5,419.7,501.2,415z"/>
	<path class="st179" d="M489,273.2c0.1,1,0.1,1.9,0.2,2.9c-2.8-4.1-5.8-8-10-10.8c-0.7-0.7-1.4-1.5-2.1-2.2c1.8-2,2.6,0.3,3.5,1
		C484,266.6,486.6,269.8,489,273.2z"/>
	<path class="st180" d="M466.2,428c0.4-0.3,0.7-0.7,1.1-1c2.1,4.6,2.9,9.7,5.2,14.2C468.7,437.7,467.6,432.8,466.2,428z"/>
	<path class="st181" d="M493.2,306.2c3.1-2.7,4.6-6.1,4.1-10.3c0.3-0.4,0.7-0.7,1-1.1c0.2,0.1,0.4,0.2,0.7,0.3
		c0.8,5.4-0.9,9.6-5.7,12.4C493.2,307,493.2,306.6,493.2,306.2z"/>
	<path class="st182" d="M439,427c0.3,0.6,0.7,1.3,1,1.9c-0.6,3.1-0.8,6.4-2.6,10.4C437.1,434.3,437.7,430.6,439,427z"/>
	<path class="st183" d="M341.1,412c-0.7,1.7-1.3,3.3-2,5c-7.4,7.8-8.8,18-11.2,27.9c-2.4,2.4-5.1,3.4-8.5,2.5
		c-4.8-1.2-9,0.5-13.2,3.1c-2.8,1.8-6.5,5.2-9.2,2.8c-2.8-2.5,1.4-5.5,2.7-8.1c2.4-4.7,5.1-9.3,7.9-13.8c2.4-3.8,5.3-7.1,9.4-9.3
		c7.3-3.9,11.8-10.4,15.9-17.4c2.1-3.5,0.2-6.8,0.2-10.2c0-1.3-0.6-3,0.5-3.8c1.5-0.9,2.7,0.5,4,1.3c7.4,4.8,8.2,7.7,4.7,15.7
		C341.7,409.1,341.5,410.6,341.1,412z"/>
	<path class="st184" d="M332.2,330.3c0.8,6.8,2.6,13.4,5,19.8c0,0.6-0.1,1.1-0.1,1.7c-1.4,2.3-3.3,3-6.2,2.8
		c-7.7-0.5-15.5-0.1-23.2-0.2c-10.7-1.9-18.8,4.5-27.6,8.7l0,0c-2.8-0.3-0.9-3-2.1-4.2c-0.2-7,2.3-13.5,4-20.2
		c0.7-3,3.3-3.6,5.4-2.7c4.8,2.1,9.7,1.4,14.6,1.5c8.3-1.2,16.5-2.7,23.7-7.4c0.2-0.4,0.5-0.8,0.7-1.2c1-1.1,2.2-1.9,3.6-2.4
		c0.5,0,1,0.1,1.4,0.4C332.3,328,333,329,332.2,330.3z"/>
	<path class="st185" d="M276.9,468c-0.3,0-0.7,0.1-1,0.1c-2.3-0.4-2.2-2.4-2.2-3.9c0.7-12.2-3.8-23.5-5.2-35.4
		c-1.1-9.3-1.1-18.5-0.5-27.8c1.3-12.9,4.7-25.3,7.4-37.9c0.5,0,0.7,0.2,0.7,0.7c0.8,6.5-2,12.4-3.2,18.5
		c-3.8,19.3-4.3,38.5,0.8,57.7C276.1,449.2,277.9,458.4,276.9,468z"/>
	<path class="st186" d="M276.1,363.8c-0.1-0.3-0.3-0.6-0.7-0.7c2.2-10.6,4.5-21.3,6.7-31.9c1.1-3.9,0.2-7.8,0.5-11.7
		c0.1-1.5-0.8-3.3,0.9-4.6c2.1,0.7,1.8,2.5,1.9,4.1c0.2,2.4,0.1,4.9,0.1,7.4c-0.1,7.8-0.1,7.9,8,9.2c3.4,0.4,6.8-0.5,10.1,0.8
		c1.5,1.2,0.5,1.9-0.5,2.7c-5.3-0.3-10.7,1.1-15.9-1.8c-2.1-1.2-4.1,0.1-4.6,2.8c-1.2,6.4-3.5,12.5-3.6,19.1
		c-0.2,0.1-0.4,0.2-0.6,0.3C276.4,360.2,277.9,362.9,276.1,363.8z"/>
	<path class="st187" d="M315.1,462.2c-2.4-0.3-4.8-0.3-7,0.8c-3.8-0.2-7.3,1.5-11,2.1c-1.1,0.3-1.3-0.2-1.1-1.1
		c7.8-6,16.6-5.6,25.6-3.6c1.8,0.4,3.6,0.6,5.4,0.8c0.1,1.5,0.1,2.9,0.2,4.8C323.1,463.9,319.4,462.2,315.1,462.2z"/>
	<path class="st188" d="M280.2,363.2c7.9-6.4,16.2-11.6,27-10c-0.1,2.5-2,2.5-3.7,2.9c-2.6,0.7-5.4,0.8-7.4,3.1
		C291.3,362.6,285.2,360.7,280.2,363.2z"/>
	<path class="st189" d="M296.1,359.1c1.2-3,4.3-3.1,6.8-3.9c1.5-0.5,3.1-0.8,4.3-2c8.6-0.2,17.1-0.7,25.6,0.3c1.5,0.2,2.1,0,2.3-1.5
		c0.4-2.4,1.3,0.2,1.9-0.1c0.1,0.5,0.2,1,0.3,1.4c0.8,4-1.5,4-4.4,3.5c-9.5-1.7-19.1-1.5-28.6,0.1
		C301.6,357.6,298.9,358.4,296.1,359.1z"/>
	<path class="st190" d="M321.1,389.1c-4.5,8.1-11.4,14-18.1,20.1c-4.2,3.9-8.7,7.4-14.2,9.5C300.9,410.2,310.5,399.1,321.1,389.1
		L321.1,389.1z"/>
	<path class="st184" d="M304.4,356.8c9-3.2,18.2-1.5,27.4-1.1c2.3,0.1,5.2,1.4,5.6-2.5c1.4,1.8,0.2,3.5-0.1,5.2
		c-0.2,1.1-1.1,2.1-2,1.1c-4.1-4.5-9.6-2.7-14.5-3.2C315.4,355.9,309.9,356.6,304.4,356.8z"/>
	<path class="st191" d="M296,464c0.4,0.4,0.7,0.7,1.1,1.1c-5,2.8-10.5,3.9-16.1,4.8c-1.4,0.2-3.5,1-3.7-1.8
		C283.9,468.2,290,466.3,296,464z"/>
	<path class="st192" d="M321.1,389.1c0.5-3.8,4.3-4.2,6.4-6.3C326.2,385.7,324.5,388.2,321.1,389.1
		C321.1,389.1,321.1,389.1,321.1,389.1z"/>
	<path class="st193" d="M330.2,445c-0.4,2.3-0.8,4.5-1.2,6.8c-1.6-2.1-0.7-4.4-0.8-6.7c0.6-0.3,1.2-0.6,1.8-0.9
		C330,444.5,330.1,444.7,330.2,445z"/>
	<path class="st188" d="M278.5,359.5c0.2-0.2,0.4-0.3,0.6-0.3c0.2,1.4-0.3,3,1.1,4C278.1,363.7,278.1,363.7,278.5,359.5z"/>
	<path class="st194" d="M170,419c0.5,5.4-2.1,10.3-3.2,15.4c-3.6,17.3-5.5,34.8-5.9,52.5c-4.9-5-4-10.8-3-17
		c1-5.9,0.9-11.9,1.3-17.9c-0.7-0.8-0.4-1.6,0-2.4c0.9-5.5-3.3-9.4-4.4-14.4c-1.3-5.5,0.3-8.3,5-9.7C163.9,424.3,167,421.9,170,419z
		"/>
	<path class="st195" d="M168,336.1c0.4,2.3,1.6,4.4,0.9,6.8c-3.3-0.2-6.3-2.8-9.8-1c-3.3,1.3-6.8,0.5-10.2,0.6
		c-4.1,0.1-8.2,0.1-12.3,0.8c-8.2,1.2-16.4,2.9-24.3,5.3c-1.2,0.4-2.3,0.3-3-0.9c0-1.2,0.1-2.5,0.1-3.7c1.7-1.6,3.9-1.9,6-2.1
		c13.1-1.5,26.1-3.6,39.2-4.4c2.9-0.2,5.6-1,8.3-1.7C164.5,335.4,166.3,334.8,168,336.1z"/>
	<path class="st196" d="M129.1,378.1c4.8-3.9,4.1-9.3,3.7-14.4c-0.4-4.6-1.1-9.1-1.6-13.7c-0.2-1.7,0-3.3,1.1-4.7
		c0.9-1,1.9-1,2.9-0.2c5.1,0.1,5,3.7,3.5,6.6c-4.4,8.3-2.4,16.8-1.5,25.3C134.9,381.2,132.1,381.6,129.1,378.1z"/>
	<path class="st197" d="M135.2,389.2c-2.9-0.3-5.7-1-7.9-2.7c-2.2-1.8-4.2-4-2.1-7.2c3.9-0.4,7.5,1.1,11.3,1.4
		c2,0.2,1.8,2.8,2.5,4.5c-0.2,1-1.3,2.1,0,3.1C138.3,390.7,136.6,389.4,135.2,389.2z"/>
	<path class="st198" d="M135.3,532.2c0.2-5.5,1.3-11,0.8-16.5c-0.1-1.6,0.6-3.3-1-4.6c0-1,0-1.9-0.1-2.9c2.9-8,2.7-16.5,3.8-24.8
		c0.5-3.4,1.1-6.9,1.2-10.3c0.9-0.3,1.4,0,1,1c-0.2,10.4-1.7,20.7-3.3,31c-1.1,7.1-0.5,14.2-0.7,21.3
		C137.1,528.5,137.5,530.8,135.3,532.2z"/>
	<path class="st199" d="M135.2,389.2c1.3-0.3,2.8,0.4,3.8-1c0.8-0.4,1.8-2.6,2.4,0.3c0.6,3.3,1.6,6.6,2,10c-1.9-2-2.1-4.7-3.3-7.2
		c0,5.6,0,11.2,0,16.9c-1.4,3.2,0.5,6.8-1.1,10c-2-7.8-0.6-15.7-0.8-23.6C138.2,391.9,137.5,390.2,135.2,389.2z"/>
	<path class="st200" d="M135.1,345c-1,0.1-1.9,0.1-2.9,0.2c-6.5-0.1-12.2,3.4-18.5,4.2c-2.1,0.3-4.2,0.7-6.3,1
		c-4.7-4.3,3.9,0,1.7-2.7c7-0.6,13.4-3.7,20.4-4.2c2.1-0.1,4.3-0.4,6.4-0.7c1.8-0.4,3.5-0.7,5.2,0.2
		C139.6,345.1,136.8,343.1,135.1,345z"/>
	<path class="st201" d="M139,418.1c0.7-3.3-0.9-6.8,1.1-10c0,10.7,2.2,21.2,3.2,31.8c2.2,2.2,1.5,4.7,0.9,7.2l0,0
		c-1.2,0.6-1.4-0.5-2-1C141.1,436.8,140.1,427.4,139,418.1z"/>
	<path class="st202" d="M179,378c0.1,0.7,0.1,1.3,0.2,2c-0.8,5.8-1.3,11.7-3.9,17.1c0-5.8-0.1-11.6-0.1-17.4
		C175.2,376.2,176.7,376.1,179,378z"/>
	<path class="st203" d="M139,385.1c-3-5.6-9.5-3.3-13.8-5.9c-1.5-0.2-3-0.4-5.4-0.7c3.6-2.5,6.5-0.6,9.3-0.4c3,1.9,5.7,1.8,8-1.2
		c0.4,0.4-0.5,1.8,1,1.2c1.3-0.7,2.7-1.4,3,1C139.5,380.8,140.5,383.4,139,385.1z"/>
	<path class="st204" d="M144.2,447.1c0-2.4,0.2-4.9-0.9-7.2c3.1-6.2,1.7-12.9,2.1-19.4c0.2-2.8-0.3-5.6,0.1-8.9
		C149.1,423.9,146,435.5,144.2,447.1z"/>
	<path class="st205" d="M141.2,379.1c-0.7-1.2-1.9-1-3-1c0-6.4-0.9-12.8,1.5-20.4c1.2,5.8,0.4,10.3,0.4,14.7c0,4.2,0.9,5.7,5,3.2
		c1.2-0.8,2.7-1,4.1-1.5l0-0.1C147.1,376.7,144.2,378,141.2,379.1z"/>
	<path class="st204" d="M142.1,446.1c0.7,0.3,1.3,0.7,2,1c-0.9,9-0.7,18.2-2.9,27c-0.3-0.3-0.7-0.7-1-1
		C141.4,464.2,141.8,455.1,142.1,446.1z"/>
	<path class="st206" d="M149.2,537.9c-0.1,1.5,0,3.2-2,3.3c-4.3,0.2-8.4-0.8-12.3-2.7c-0.2-0.1,0.1-1.1,0.2-1.7
		C139.8,537.4,144.4,539.2,149.2,537.9z"/>
	<path class="st207" d="M141.2,343.2c-1.7-0.1-3.5-0.2-5.2-0.2c7.6-1.7,15.4-0.8,23-1c1.5,0.5,1.8,1.1-0.1,1.1
		C153,343.1,147.1,343.1,141.2,343.2z"/>
	<path class="st208" d="M159.1,449.6c0,0.8,0,1.6,0,2.4c-2.5,1.9-4.6,4.6-9.4,2.8C153.8,453.4,157,452.4,159.1,449.6z"/>
	<path class="st205" d="M149.2,374.1c0.7-1.3,1.9-1.5,3.4-1.8C151.8,374.3,150.4,374,149.2,374.1C149.1,374,149.2,374.1,149.2,374.1
		z"/>
	<path class="st209" d="M107,391.8c-7-8.1-8.4-23.4-2.8-31.1c-0.3,2.8-0.6,5.5-1,8.3c-0.5,3.7-0.3,7.2,1.8,10.5
		C107.4,383.3,107.2,387.5,107,391.8z"/>
	<path class="st210" d="M455.3,632c0-2,0-3.9,0-5.9c2.6-7,5.2-14,7.8-21c0.8,1.8,1.4,3.7,2.3,5.4c0.9,1.7,1.1,4.2,3.4,4.4
		c2.2,0.2,1.8-2.8,3.2-3.8c0,4,0,7.9,0,11.9c-0.5,1-0.4,2.2-1.3,3C467.4,632,460.3,634.8,455.3,632z"/>
	<path class="st211" d="M481.1,569.1c-3,9-5.9,18-8.9,27.1c0-2,0.2-4-0.1-5.9C470.6,581.2,475.8,575.1,481.1,569.1z"/>
	<path class="st212" d="M474.1,500c-1.8-0.2-2-1.5-1.9-2.9c0.4-6-0.3-12,2.1-17.9c0,5.3,0,10.6,0,15.9
		C474.2,496.8,474.1,498.4,474.1,500z"/>
	<path class="st213" d="M269.4,264.2c2.6-1.6,1.5,1.1,1.5,1.6c0.6,5.9,1.1,11.8,3.2,17.4c3.4,5.2,3.5,11.6,6.4,16.9
		c1.3,3.4,2,6.9,2.7,10.5c0.4,2,0.4,3.9-1.2,5.5c-1.2-0.6-1.7-0.3-1.8,1.1c-0.7,5.4-1.3,10.8-2.3,16.1c-0.4,2-0.9,4.3-2.6,5.8
		c-1.4-3.5,0.5-6.6,0.5-9.3c-0.8,1.6-0.5,4.1-1.1,6.5c-0.2,1-0.2,2-1.6,1.9c-3.5-3.7-2.5-8-1.3-12.2c2.7-9.8,4.5-19.3,0.2-29.5
		C267.6,286.3,267.4,275.2,269.4,264.2z"/>
	<path class="st214" d="M268.1,401c-2.5,23,7.2,44.5,7.9,67.1c-0.1,0.6-0.1,1.3-0.2,1.9c-4.1-1.5-3.5-5.2-4-8.4
		c-2.6-17.7-5.3-35.4-4.8-53.4C267.1,405.9,266.4,403.3,268.1,401z"/>
	<path class="st215" d="M257.4,417.1c-0.1,1.5,0.1,3.1-0.4,4.4c-1.6,3.9-1,7.3,1.7,10.5c2.1,2.5,1.5,4.1-2.1,4.3
		c-3.4,0.2-6.1-1-8.1-3.8c-4.4-6.5-7.2-13.3-5.3-21.4c0.9-0.1,1.3,0.4,1.6,1.1c0.6,5.1,0.6,10.3,3.5,14.8c1.7,2.7,3.4,5.2,7.2,6.2
		c-3.8-5.7-2.5-11.1,0.4-16.3C256.5,416.7,257,416.8,257.4,417.1z"/>
	<path class="st216" d="M244.3,412.4c-0.3-0.4-0.7-0.8-1-1.3c3.6-12.6,4.5-25.7,7.7-38.3c1.1,0.6,1.6,1.6,1.9,2.7
		c-1.4,11.6-3,23.2-6.5,34.4C246.1,411,245.7,412.1,244.3,412.4z"/>
	<path class="st217" d="M257.4,417.1c-0.4,0-0.8,0-1.2,0c-0.1-0.1-0.3-0.3-0.3-0.4c2.3-6.2-0.3-12.1-0.9-18.2
		c-0.5-5.8,1.7-11.4,4.8-16.4c1-0.3,1.6-0.2,1.4,1c-0.7,2.5-1.1,5.2-2,7.6c-1.7,4.7-2.1,9.1,0.2,13.8
		C261.6,409.1,260.4,413.3,257.4,417.1z"/>
	<path class="st218" d="M261.2,383.1c-0.3-0.3-0.6-0.7-0.9-1c-1.2-1-1.1-2.4-0.8-3.7c2.4-8.4,3.8-17.2,7.6-25.2
		c0.8-1.6,1.4-3.4,3.2-4.3c0.3,0,0.5,0,0.8,0.1c-1.4,7.3-5.4,13.8-6.6,21.2C263.8,374.6,262.3,378.9,261.2,383.1z"/>
	<path class="st219" d="M252,375.1c-0.3-0.8-0.7-1.5-1-2.3c2.8-9.9,5.4-19.9,7-30.1c0.3,0.8,0.6,1.6,1,2.4c1.1,0.8,1.1,2,1,3.1
		c-0.9,8.7-3.4,16.9-6.4,25C253.3,374,252.8,374.7,252,375.1z"/>
	<path class="st220" d="M281.9,316.1c0.7-5.6-1.7-10.7-2.7-16.1c0.3-0.7,0.6-1.2,1.5-1.2c0.7,0.3,1.1,0.8,1.4,1.5
		c0.2,0.4,0.3,0.9,0.4,1.4c1.2,4,2,8.1,2.1,12.3c-0.1,0.5-0.3,0.9-0.8,1.2c-1.4,3.4-0.3,6.9-0.7,10.3c-0.2,1.9,0.6,4-1,5.7
		C282.1,326.2,282,321.1,281.9,316.1z"/>
	<path class="st218" d="M273.1,338c2.2-2.6-0.2-6.6,2.7-8.9c1.4,3.4-1,6.6-0.6,10c-1.9,3.1-1.3,7.2-4.1,9.9c0,0,0,0,0,0
		C269.4,345,271.2,341.5,273.1,338z"/>
	<path class="st4" d="M122,205.2c-0.6-1.5-4-0.4-3.1-3.3c3.2-5.4,8.2-9,12.5-13.2c3.1-1,4.8-5.6,9-3.6c1,3.6,3.1,6.6,5.1,9.6
		c3.4,5.2,5.6,10.4,4.1,16.8c-0.6,2.7,0.1,5.6-0.4,8.4c-1.4,5.1-5.3,7.2-10,8.2c-4.3-0.1-8.4-1-11.7-4.1c-2.2-3.1-4.5-6-4.3-10.1
		c-0.2-1.7,0.5-3.5-0.8-5.1C121.2,207.8,121.7,206.5,122,205.2z"/>
	<path class="st221" d="M179.4,253.3c0,2.5-0.5,3.4-2.9,1.4c-5.4-4.6-11.4-8.2-17.7-11.6c-0.9-0.5-2.3-2.6-3.5-0.1
		c-0.3,1.7-0.6,3.4-1,5.1c-1.1,0.1-1.3-1.2-2.2-1.5c0.4,1.8,0.1,3.3-1.2,4.6c-2.8-0.9-2.8-3.6-3.6-5.8c0.1-0.7-0.2-1.6,0.5-1.9
		c-1.9,4.6-3.2,9.7-6,14.2c-0.5,0.8-1.1,1.6-1.6,2.4c-3.4,4.8-5.4,4.9-9.6,0.7c-0.7-0.7-1.4-1.3-2.1-2c-1.3-1.3-1.8-2.9-2.2-4.6
		c-0.6-0.8,1.5-2.8-1.4-2.8c-0.8,0-0.8-2.3-1.5-3.4c-0.9-1.6-2.7-1.8-4-2.8c-0.6-0.6,0.4-2.3-1.5-1.9c-0.6-0.3-1-0.8-0.7-1.5
		c1.9-1,3.7-2.2,5.7-3c1.9-0.8,2.4-2.1,2.4-3.9c0-1.8-0.9-2.8-2.6-3.1c-4-0.8-4.3-3.3-2.7-6.3c1.3-2.4,0.3-5.8,3.1-7.5
		c2.3,1.1,3.1,3.6,4.6,5.4c0.4,3.2-0.8,6.4,0.4,9.5c0.1,0.5,0.2,1,0.3,1.5c0.6,4.5,1.3,9,0.3,13.6c1-3.8,0-7.8,0.9-11.6
		c0.5-2.1-0.4-5.8,2.4-5.7c3.3,0.1,7.8-1.4,10.1,2.9c0.1,0.3,0.1,0.6,0,1c-0.1,0.3,0.3,0.1,0.2-0.2c-1.7-5.7,1.8-8.8,5.9-11.7
		c0.2,0,0.5,0,0.7,0c-0.4,7.5,3.8,12.3,9.4,16.3C165.2,244.1,173,247.7,179.4,253.3z"/>
	<path class="st222" d="M115.5,206.6c2.2,2.6,2.4,4.1,2.5,5.6c0.3,7.8-0.3,15.6-2,23.3c-1.3,6-10.8,10.6-16.5,8.4
		c-2.1-0.8-2.8-2-1.6-4.2c1.2-2.1,2.7-3.8,4.4-5.4C110,227.1,118.3,220.3,115.5,206.6z"/>
	<path class="st223" d="M146.1,180.1c3.3,1.4,5.7,3.6,7.1,7c3.6,9.1,8.3,17.3,17.5,21.8c0.6,0.3,1.1,0.8,0.9,1.7
		c-1.9,1.2-3.7-0.9-5.6-0.3c-5,0.1-7.7-1.5-9.4-5.6c0.7-0.4,1.3-1.3,1-1.5c-5.1-3.5-8.2-8.8-12.3-13.3c-0.5-0.8-0.8-1.6-1.2-2.5
		c-1.8-2.6-1.5-6.1-3.9-8.4c-0.1-0.3-0.1-0.7-0.2-1C143.4,175.3,144.4,175.6,146.1,180.1z"/>
	<path class="st224" d="M146.1,180.1c-1.7-1.6-2.9-4.8-6.1-2.2c-3.7-3.3-6.8-1.8-10.1,0.9c-5.4,4.3-9.6,10.2-16.1,13.1
		c-3,1.3-5.8,3.3-9.3,3.3c-1.7,0-2.1-0.6-1.4-2c3.2-1,6.5-1.7,9.2-3.9c4.4-0.8,7.1-4.1,10.2-6.7c2.7-2.2,5.1-4.8,7.9-6.8
		c2.5-1.8,5.3-3.8,8.4-0.6c0.4,0.4,1.4,0.7,1.7,0.5c4.5-3.9,7.1,0,10,2.5C148.6,177.8,147.9,180.1,146.1,180.1z"/>
	<path class="st225" d="M145.2,187.2c0.3,0.7,0.6,1.4,0.9,2c-0.4,0.3-0.8,0.4-1.2,0.4c-2.3-0.7-3.6-2.4-4.7-4.3
		c-4-0.7-5.7,3.3-8.8,4.3c-0.5-0.5-0.5-1,0-1.5c2.7-2.1,5.3-4.2,8-6.3C142.6,182,143.3,185.3,145.2,187.2z"/>
	<path class="st226" d="M131.2,188.1c0,0.5,0,1,0,1.5c-4.1,4.1-8.2,8.2-12.3,12.3c-0.5-3.8,3.2-4.8,4.9-7.2
		C125.6,192,128.7,190.3,131.2,188.1z"/>
	<path class="st227" d="M118.1,243.1c1.1-0.5,2.1-1.5,3.6-0.6c-0.3,1.7-2.1,1.5-2.9,2.6c0.1,1.3-0.8,2-1.6,2.7
		c-0.9,0.6-1.5,1.6-2.8,1.3l-0.4,0c-1.6-1.8-3.2,1.8-4.8,0.1c0,0-0.1-0.1-0.1-0.1c0-0.3,0-0.6,0.1-1
		C111.5,245.2,114.7,244,118.1,243.1z"/>
	<path class="st228" d="M145.2,187.2c-2-1.8-4-3.5-6-5.3c-0.1-1.1-0.3-2.3,1-3c1.6-0.2,4-0.3,3.3,2
		C142.7,183.7,145.1,185,145.2,187.2z"/>
	<path class="st229" d="M91.1,230.6c-3.3-0.9-0.6-3.1-1-4.6c1.4-1.3,3-1.9,3.9,0.2C95,228.8,92.5,229.5,91.1,230.6z"/>
	<path class="st230" d="M118.1,243.1c-3,1.7-6,3.3-9,5c1.1-4,4.7-4.8,7.9-6C117.4,242.4,117.8,242.7,118.1,243.1z"/>
	<path class="st231" d="M127.1,223.3c-1.5-1.6-3.2-3-4.1-5.1c-0.1-1.4-1.9-2.9,0.2-4.2c1.7,3.1,3.4,6.1,5.1,9.2
		C127.9,223.6,127.5,223.6,127.1,223.3z"/>
	<path class="st232" d="M122,205.2c0.1,1.3,0.2,2.6,0.3,3.8C120,207.9,121,206.5,122,205.2z"/>
	<path class="st233" d="M158.2,296.2c0,2.6,0,5.2,0,7.8c-3.6-8-2.4-17.2-6.8-24.9c-3-6.1-1.7-12.2-0.4-18.4c1-1.9,0.5-4.5,2.7-5.9
		c1.7,0.1,2,1.6,2.3,2.8c0.9,3.7,2.5,7.2,3.7,10.8c2.1,6.1,2.1,6.1-4.8,7.7c6.6,4.5,5.6,10.3,3.6,16.3
		C158,293.6,157.4,294.9,158.2,296.2z"/>
	<path class="st234" d="M174.1,330.1c-0.8-0.8-2.2-1.5-2.4-2.4c-2.6-12.7-7.7-25.3-3.8-38.6c1.8,4.8,0.4,10,2.2,13.7
		c-1.4-5.8-2.1-12.8,0.3-19.7c0.3-0.9,0.4-2,1.8-1.9c-0.6,7-1.6,14,0.8,20.9c0.4,0.3,0.9,0.7,0.7,1.2c-2.7,7.5-0.2,14.7,0.7,22.1
		C174.5,326.9,175.2,328.5,174.1,330.1z"/>
	<path class="st235" d="M152.4,259.7c-1.6,6.4-1.1,12.9-1,19.4c-1.2,13.1,1.7,25.3,7.9,36.9c-0.3,0.4-0.5,0.8-0.8,1.2
		c-2.8-0.8-3.5-3.4-4.5-5.6c-5.1-12-7.1-24.5-5.8-37.4c0.5-5,0.2-9.9,1-14.9c1.2-2.6-0.2-5.9,1.9-8.3c0.1-1,0.2-1.9,0.5-2.9
		c0.3-0.8,0.1-2.3,1.3-2.1c0.6,0.1,1.1,1.4,1.7,2.2c0.2,0.9,0.5,1.9,0.7,2.8c-0.4,0.5-0.7,1.1-1.1,1.6
		C152.2,254.7,152.9,257.4,152.4,259.7z"/>
	<path class="st236" d="M153.9,252.4c0.4-0.4,0.8-0.9,1.2-1.3c1.8,7.2,3.8,14.4,7.1,21c1.3,2.6,0.5,3.7-2.1,4.1
		c-2.9,1.6-0.9,3.2-0.1,4.8c2.2,5.4-1.9,10-2,15.2c-2.1-3.2,0.2-6,0.9-8.9c0.5-2.1,1.4-4-0.9-5.8c-2-1.6-4.8-3.7-4-6.3
		c0.8-2.4,4.3-0.2,6.4-1.5c-2.2-6.2-4.4-12.4-6.7-18.7C153.3,254.1,153.3,253.2,153.9,252.4z"/>
	<path class="st237" d="M174.1,330.1c-0.4-3.1-0.5-6.3-1.3-9.2c-1.7-6.3-2.1-12.6,0.1-18.8c1.5-2.5,0.5-5.9,3.1-8.5
		c0.8,4-0.6,7.3-1.4,10.6c-1.4,6.1-1,12.1,0.2,18.1c0.6,2.8,0.5,5.6,0.3,8.4c0,0.1-0.1,0.3-0.2,0.4
		C174.6,330.6,174.3,330.3,174.1,330.1z"/>
	<path class="st238" d="M181.3,302.1c-0.3,5.9,1.8,11.3,2.9,16.9c0.5,3.1,1.1,6.2,1.6,9.3c-0.7,1.3,0.5,3-0.9,4.1
		c-0.5-7.5-3-14.4-5.3-21.5c-1.3-3.8-0.4-7.8,1.3-11.5C181.1,300.2,181.2,301.2,181.3,302.1z"/>
	<path class="st237" d="M172.1,281c-3.4,7.5-2.9,15.3-0.7,24.2c-4.2-5.6-2.9-11.1-3.5-16.2c0.8-3.1,1.6-6.2,2.5-9.3
		c0.2-0.5,0.6-1.3,1.4-0.9C172.6,279.3,172.1,280.3,172.1,281z"/>
	<path class="st239" d="M184.9,332.3c0.4-1.3-0.2-2.9,0.9-4.1c0.8,5.5,2.9,10.9,2.1,16.7c0,0.1-0.2,0.3-0.3,0.3
		c-0.1,0-0.3-0.1-0.5-0.1C185.3,341,184.7,336.7,184.9,332.3z"/>
	<path class="st240" d="M173.2,254.7c4.8,2.7,8.3,6.2,6.8,12.4C177.7,262.9,175.4,258.8,173.2,254.7z"/>
	<path class="st241" d="M180.3,267.5c1.8,7.9,0.5,15.8,0.7,23.8C179.3,283.4,180.2,275.4,180.3,267.5z"/>
	<path class="st242" d="M160.2,281c-1.6-1.1-3.3-2.3-3.1-4.5c0-0.2,2.1-0.2,3.2-0.3C160.2,277.8,160.2,279.4,160.2,281z"/>
	<path class="st243" d="M296,189.2c0.9-4.2,4.3-1.1,6.3-2.2c4.4-0.7,6.4,2.1,8.1,5.5c1,1.9,0.8,4.2,1.7,6.1c1,5.1,5,9.1,5,14.5
		c0.4,2.1,0.6,4.2,1.1,6.2c1.4,5,0.8,9.9-1,14.7l0,0.1c-1,0.8-0.9,2.1-1,3.2c-0.4,0.3-0.9,0.4-1.4,0.5c-1.1,0-1.9-0.5-2.2-1.6
		c0.2-3.5,3-6,3.8-9.3c0.2-0.7-0.9,0-0.3-0.1c-0.8,3.7-3.1,6.8-4.8,10.1c-6.3,4-14.5,1.9-19-4.9c-0.4-2.4-0.8-4.9-1.9-7.1
		c-4.3-8.6-3.1-17.7-1.7-26.6c0.4-2.6,1.2-5.2,3.4-7C293.2,190.4,294.7,190,296,189.2z"/>
	<path class="st244" d="M313.1,256c-3.9,1.5-7.9,1.3-12,0.9c-3.7-0.4-7.7,0-9.3-4.5c2.7-2.2,6.4-3.6,6.2-8.1c0-0.9,0-1.6-0.9-2.2
		c-3.5-2.7-7.3-5.2-9.4-9.2c-1-2-2.8-4.3-0.7-6.8c1.3,0.1,2.2,0.9,2.6,2c2.4,6.1,7.6,8.7,13.1,10.8c1.8,2.1,4,2.1,6.3,1.1
		c1.5-0.6,2.9-0.6,4.1,0.7C315.1,242.7,315.1,253.5,313.1,256z"/>
	<path class="st245" d="M293.2,191.3c-1.7,2.1-2.8,4.3-3.3,7c-1.5,9.2-2.4,18.2,1.9,26.9c1.1,2.2,1.5,4.3,1.4,6.7
		c-4.6-2.2-5.3-7-7.5-10.8c-0.2-0.3-0.2-0.6-0.5-0.8c-0.1-4.1-0.1-8.3-0.2-12.4c-0.6-4.6-1.2-9.2,1.5-13.3
		C288,192.2,289.8,190.1,293.2,191.3z"/>
	<path class="st246" d="M275.1,281.1c-1.3-9-2.6-18-3.9-27.1c1,0,2,0,3,0c0.6,0.4,1.4,0.2,2.1,0.6c0.4,0.3,0.7,0.7,1,1.1
		c-2.5,7.4,1,14.6,0.2,22c-0.1,1.3-0.2,2.6-1.5,3.4C275.6,281.2,275.4,281.2,275.1,281.1z"/>
	<path class="st247" d="M285.2,220.3c3.8,3.1,4.3,8.4,8,11.7c6.4,6.4,12.4,7.6,17.9,3.6c0.4,0.5,0.6,1,0.6,1.7
		c-2.4,4.4-5.9,3.6-9.6,2c-7.1-2-12.2-6.3-15.1-13.1c-0.5-1-1.2-1.1-1.6,0c-0.5,1.7-0.3,3.6-2.2,5.5
		C282.7,227.3,284.3,223.8,285.2,220.3z"/>
	<path class="st248" d="M331.1,253.1c-3.8-0.4-6.9-2.9-10.8-3.3c1.2,0.8,2.3,1.6,3.7,2.6c-2.7,1.7-4.9,3.1-7-0.2
		c-1.4-1.7-1.4-3.4-0.2-5.2C322.6,246.8,327.2,249.2,331.1,253.1z"/>
	<path class="st249" d="M293.2,177.3c4.5-0.2,8.9,0.8,13.4-1.1c2.8-1.2,5.8,0.2,7.8,2.9c-5-3.1-9.8,0.1-14.7,0.4
		C297.1,179.7,294.9,179.5,293.2,177.3z"/>
	<path class="st250" d="M317.1,213.1c-1.8-4.8-4.6-9.1-5.8-14.1c0.7-0.5,0-1.8,1.1-2.1c2.2,5.9,4.6,11.7,7.8,17.3
		C318.5,214.8,318.2,213,317.1,213.1z"/>
	<path class="st251" d="M293.2,191.3c-5.6,1.1-7.6,5.1-7.9,10.2c-0.1,2.1-0.1,4.2-0.2,6.4c-2.2-5.7-1.5-11,2-16
		c0.6-1.4,2.1-1.2,3.2-1.7c1.9-0.3,3.8-0.6,5.8-1C295.7,190.8,294.1,190.6,293.2,191.3z"/>
	<path class="st252" d="M312.4,196.9c-0.2,0.8-0.2,1.7-1.1,2.1c-1.6-5.1-2-11-9-12c4.6-2.7,6.7,0.6,8.5,3.8
		C311.7,192.6,311.8,194.8,312.4,196.9z"/>
	<path class="st253" d="M297.2,242.2c1.2-1.5,1.8-1.2,1.9,0.7c0.2,5-1.9,8-6.9,9.4c-1.1,1.8-2.8,2-4.6,1.7c-0.7-0.3-1.4-0.6-1.3-1.5
		c1.4-0.4,2.8-1,4.2-1.3C295.4,250.1,297.8,247.3,297.2,242.2z"/>
	<path class="st254" d="M276.2,255.1c-0.8,0-1.8,0.3-2-1c1.6-1.8,3.3-3.6,4.9-5.5c1.5-1.9,2.9-4,5.1-7.1c-1.1,5.2-3.7,8.3-5.8,11.5
		C278,254.2,277.3,254.9,276.2,255.1z"/>
	<path class="st255" d="M285.6,239.9c0.3,3.8,4.5,8.3-2.2,11.4C284.2,247.2,284.9,243.6,285.6,239.9z"/>
	<path class="st256" d="M326.9,212.2c2.4,6.1,0.9,12.5,1,18.7C327.3,224.7,325.5,218.5,326.9,212.2z"/>
	<path class="st257" d="M316.9,247.1c0.1,1.7,0.1,3.5,0.2,5.2c0,0.2,0,0.4,0.1,0.6c-0.2,0-0.4,0.2-0.5,0.1
		c-3.1-2.2-4.1-12.8-1.5-15.8c0.3,0,0.6,0.1,0.9,0.2C316.4,240.6,316.6,243.8,316.9,247.1z"/>
	<path class="st258" d="M310.9,181.5c1.8,3.7,3.7,7.5,5.5,11.2C313.2,189.6,310.2,186.4,310.9,181.5z"/>
	<path class="st259" d="M290.2,190.1c-0.9,0.9-1.9,1.6-3.2,1.7c-1.1-1.9-0.4-3.4,1-4.8c1.2,0.2,1.8-1.8,3.2-1
		C293.3,188,288.5,188.3,290.2,190.1z"/>
	<path class="st260" d="M317.2,234c3.3,1.8,1.3,6.5,4.5,8.4C317.8,241,317.1,237.7,317.2,234C317.1,234.1,317.2,234,317.2,234z"/>
	<path class="st261" d="M291.2,186.1c-1.2-0.2-1.6,2.4-3.2,1c1.8-2.6,4-4.7,8.7-5.3C294.2,183.7,292.7,184.9,291.2,186.1z"/>
	<path class="st262" d="M286.3,252.4c0.4,0.3,0.7,0.5,1.1,0.8c-2,2.8-4.4,3.7-7.4,1.5c0.1-1.6,1.8-0.8,2.4-1.5
		C283.7,252.9,285,252.6,286.3,252.4z"/>
	<path class="st246" d="M282.4,253.1c-0.8,0.4-1.6,0.8-2.4,1.1c-0.9,1.8-2.3,1.8-3.8,0.8c0,0,0,0,0,0c0.7-0.7,1.4-1.3,2.2-2
		C279.7,253.1,281.1,253.1,282.4,253.1z"/>
	<path class="st263" d="M151,251c0,2.8,0.5,5.6-0.7,8.3c-3.7,6.3-2.5,13.2-2,20c0.2,2.6,0.4,5.3-0.5,7.3c-2.7,5.5-1.8,11.4-2.9,17.1
		c-0.7,3.8,0.6,6.4,3.7,8.4c3.2,2.1,6.8,3.5,9.8,5.8c3.6,5.8,7.5,11.5,9.5,18.2c-19.3,4.6-39.2,4.9-58.7,8c0-3.9-0.1-7.9-0.1-11.8
		c-0.8-4.9,2-8.8,3.5-13.1c3.8-6.7,6.7-14,11.3-20.4c3.6-5,3.7-11.2,2.5-17.2c-2.5-6.1-2.4-12.7-3.6-19c0.6-5.1-1.4-10.4,1.3-15.3
		c0.5,2.5,3.2,4.1,3,6.9c0.3,4.1,1.9,7.8,3.8,11.3c2.7,3.5,5.2,2.6,7.8-0.2c1.8-2,2.7-4.5,3.7-6.9c1.3-3.2,2.2-6.5,3.3-9.7
		c0.4-1.3-0.1-3.5,2.4-3.6C149.1,247,150,249,151,251z"/>
	<path class="st264" d="M105.1,309c-4.3,7.1-5.3,15.1-5.9,23.2c-0.2,1.8,0,3.6-0.1,5.5c0,0.8-0.1,1.8-1.2,1.8
		c-0.5,0-1.2-0.5-1.6-0.9c-0.4-0.5-1-1.1-1-1.7c-0.4-7.2-2.3-14.9-0.7-21.7c2.1-8.5,4.9-17.1,7.8-25.5c0.1-0.3,0.5-0.5,0.7-0.7
		C107.9,293,108.9,303.9,105.1,309z"/>
	<path class="st265" d="M125,280.1c-0.9,1.3-1.9,2.7-2.8,4c-3.2-0.7-4.7-3.7-7.4-5.2c-2-1.1-0.3-2.6,0.7-3.6c2.3-2,2.1-3.8-0.3-5.5
		c-0.4-0.6-0.8-1.2-0.6-1.8c2.1-5.4,3.7-10.9,2.6-16.8c-0.2-1.3,0.7-2.6,2.4-2.7c1.6-0.1,2.6,0.8,3,2.1c0.8,2.2,0.9,4.5,1,6.8
		c-1.9,2.9-0.5,5.8-0.2,8.7C123.9,270.8,125.7,275.3,125,280.1z"/>
	<path class="st266" d="M116.2,270.2c3.6-0.1,4,1.7,1.6,3.7c-3.6,3-3.5,5.1,0.8,6.9c1.7,0.7,2.3,2.4,3.6,3.3
		c-0.1,2.3-0.1,4.5-0.2,6.8c-3.3-1.4-1.2-4.8-2.6-6.9c-0.8-0.8-1.4-2-2.4-2.5c-4.7-2.2-6.4-4.8,0.6-8.8c-6.2,0.1-5.9-2.8-5.5-5.8
		c0.8-5.9,1.5-11.9,2.2-17.8c0.6-0.6,1.1-1.2,1.7-1.7c1.9,5.8,0.3,11.5-0.6,17.2C115.2,266.5,113.3,268.6,116.2,270.2z"/>
	<path class="st267" d="M105.1,309c2.6-7,0.1-13.4-1.9-19.9c-0.2-1.6-0.1-3.3-0.6-4.8c-0.6-1.7,0.1-2,1.5-2.2
		c2.2,0.8,2.1,2.8,2.3,4.6c0.2,2.7,1.2,5.2,1.4,7.9c0.2,3.4,1.4,0.5,2.2,0.4c0.5-0.4,1.1-1.3,1.4-1.2c1.5,0.5,0.5,1.6,0.2,2.3
		c-2.4,6.1-4.8,12.2-5.5,18.8c-0.9,0.3-1.3,0-1-1C105,312.3,105.1,310.7,105.1,309z"/>
	<path class="st268" d="M127.2,281.9c2.4,6.4,1.2,12.6-2.4,17.9c-4.2,6.3-8,12.8-11.6,19.5c-0.7-0.7-0.7-1.4-0.1-2.2
		c1.3-2.9,2.6-5.9,4-8.8c1.1-2.6,2.4-5.1,4.1-7.4c4.1-5.3,5.7-11.2,4.6-17.8c0.1-0.1,0.2-0.3,0.3-0.4
		C126.4,282.4,126.8,282.1,127.2,281.9z"/>
	<path class="st269" d="M110,295c-0.5,1.5-0.9,3.1-2.4,4.3c-1.2-5.8-2.3-11.4-3.5-17.1c0.6-0.9,1.3-1.8,2.1-3
		C108.7,284.4,107.4,290.2,110,295z"/>
	<path class="st270" d="M127.2,281.9c-0.4,0.3-0.7,0.5-1.1,0.8c-0.4-0.9-0.8-1.8-1.2-2.6c-1.2-6-2.5-12.1-3.5-18.2
		c-0.2-1.2-2.1-3.9,1.5-3.9c1.4,1.6-0.1,3.7,1.1,5.3C125.2,269.5,126.2,275.7,127.2,281.9z"/>
	<path class="st271" d="M119.4,284c2.2,1.8,1,4.9,2.6,6.9c-2.1,7.3-5.6,13.9-9.7,20.4C115.7,302.4,120.4,293.9,119.4,284z"/>
	<path class="st272" d="M125.8,283.1c2.8,5.8,0.2,10.9-2.3,15.8c-1.7,3.3-4.2,6.2-6.4,9.3c-0.3-2.1,0.6-4,1.8-5.5
		C123.6,297,125.5,290.4,125.8,283.1z"/>
	<path class="st273" d="M113.1,317.1c0,0.7,0.1,1.5,0.1,2.2c-1.4,4.3-2.7,8.6-4.1,13c-1.6,0.9-0.7,3.3-3.3,4.3
		C108,329.6,109.4,322.9,113.1,317.1z"/>
	<path class="st274" d="M99.3,264.1c-0.6-5.1,0.1-9.4,6-10.9C101.9,256,102.2,260.9,99.3,264.1z"/>
	<path class="st275" d="M105,314c0.3,0.3,0.7,0.6,1,1c-0.4,2.9-1,5.7-3,9.6C103.8,320.1,103.5,316.9,105,314z"/>
	<path class="st276" d="M109.2,249.1c1.4,0.2,2.4-0.7,3.5-1.3c1.6-0.8,1.5,0.1,1.4,1.2c-2.2,0.3-3.7,2.7-6.2,2
		C108.3,250.4,108.7,249.8,109.2,249.1z"/>
	<path class="st277" d="M156.9,204.3c1.9,3.8,5.9,4.4,9.2,5.9c0.1,2,2.5,3.1,2.3,5.7c-2.2-1-4.2-1.9-6.2-2.9
		c-3.9-1.9-6.6-1.2-7.9,3.2c-0.8,2.9-2.2,5.5-5.3,6.6c0,0,0-0.1,0-0.1c-0.1-3.8,1.5-7.2,2.4-10.8c0.8-2.1,1.4-4.4,1.8-6.6
		c0.3-1.5,0.7-3.1,2.8-2.2C156.4,203.4,156.7,203.8,156.9,204.3z"/>
	<path class="st278" d="M510.1,296.1c2.6-2.4,3.9-5.6,5.2-8.8c0.3,0.3,0.7,0.7,1,1c-2.6,7.2-7.4,13.2-11.3,19.7
		c-1.1,0.4-1.2,2.5-3.3,1.8C503.8,304.7,508.3,301.1,510.1,296.1z"/>
	<path class="st279" d="M535.2,253c0.4-0.3,0.7-0.7,1.1-1c1.2,1,1,2.2,0.9,3.6C535.6,255.2,535.7,253.9,535.2,253z"/>
	<path class="st280" d="M141.4,615.2c-0.1,0.6-0.2,1.1-0.3,1.7c-4,0.4-7.9,0.9-11.9,1.2c-1.7,0.1-3.7,0.9-5.1-0.9
		c0.4-0.7,0.8-1.4,1.2-2.1C130.7,615.1,136,615.1,141.4,615.2z"/>
	<path class="st281" d="M482.7,202c-5.7-2.9-8.8-6.3-9.7-11.6C476,193.9,479,197.4,482.7,202z"/>
	<path class="st282" d="M483.8,257.4c-3.2-4.1-3.1-8.7-2.2-13.3C482.5,248.5,482.8,253,483.8,257.4z"/>
	<path class="st283" d="M491.3,224.2c-0.4,2.3-0.9,4.5-1.3,6.8c-1-5.2,0.7-10,1.3-15.6C493.3,218.8,490.8,221.4,491.3,224.2z"/>
	<path class="st284" d="M489.3,214.1c-0.6-2.8-1.3-5.6-2.1-9.1C490.4,208,490.4,208,489.3,214.1z"/>
	<path class="st285" d="M142.9,599.1c0.1,1.3,0.2,2.7,0.3,4c-1.4,1.5-2.8,3.6-5,1c-3.5-5.6-0.3-9.8,3-14c2.7,0.4,1.1,2.5,1.4,3.8
		C142.9,595.6,142.4,597.4,142.9,599.1z"/>
	<path class="st286" d="M125,614.1c-1.7,0.9-3.1,0.9-2.7-1.5c1.2-6.4,2.6-12.7,3.9-19c0.2-0.9,0.6-0.5,0.8-0.1
		c0.2,0.4,0.2,1,0.4,1.4C126.6,601.3,125.8,607.7,125,614.1z"/>
	<path class="st287" d="M138.2,604c2,1.6,3.2-1.4,5-1c1.2,4,1.9,8-0.2,12c0.8-2.7-0.9-4.6-2.2-6.6
		C139.8,607.1,138.1,606.1,138.2,604z"/>
	<path class="st287" d="M142.9,599.1c-2.1-2.7,0.6-6.3-1.7-9c0.7-3.6,1.3-7.2,2-10.8c0.7-0.7,1.1-0.1,1.6,0.4
		c-0.2,1.4-0.4,2.9-0.6,4.3C142.2,588.9,143.5,594.1,142.9,599.1z"/>
	<path class="st35" d="M144.8,579.7c-0.5-0.1-1-0.3-1.6-0.4c-0.2-1.7,0-3.3,1.8-4.2C145.1,576.6,145.6,578.2,144.8,579.7z"/>
	<path class="st288" d="M293,631.3c0.1-2.1,0.1-4.2,0.2-6.3c3,2.8,5.6,1.6,8.1-0.7c1.3-1.2,2.5-2.6,3.7-3.9c1.3-0.7,2.7-1.4,4-2.2
		c1.3,5.5,0.6,11.1,0.3,16.7c-0.9,2,1.7,5.8-3,6c-4,0-7.7-1-10.9-3.3C293.3,636.2,291.9,634.1,293,631.3z"/>
	<path class="st289" d="M309.3,635c-0.1-5.6-0.2-11.1-0.3-16.7c0.5-2.2-0.4-4.6,1-7c1,5.7,0.1,11.2,0.4,16.6
		C309.5,630.2,311.1,632.8,309.3,635z"/>
	<path class="st126" d="M479.3,624.9c1-1.2,2.3-1.9,3.9-1.8C482.6,625.3,481,625.1,479.3,624.9z"/>
	<path class="st290" d="M459.1,200.1c1.8,3.5-1.2,5.4-2.8,7.4c-2,2.6-4.8,4.5-7.2,6.7c-0.3-3.4,3.2-4.1,4.6-6.4
		C455.4,205.2,457.3,202.7,459.1,200.1z"/>
	<path class="st159" d="M343.3,326c0.8,7.3,2.6,14.5,1.7,22c-2.6-1-2-3.7-2.6-5.5c-2-6.3-6.4-11.6-7.2-18.4
		c-3.2-3.2-3.1-7.5-3.5-11.6c-0.7-8.2,1.1-16.2,1.1-24.4c1.8-9.2,2.6-18.5,3.4-27.9c8.5,3.1,11.5,7.9,10.4,16.5
		c-0.2,1.5-0.2,2.9-0.4,4.4C344.5,296,343,311,343.3,326z"/>
	<path class="st291" d="M334.2,288.1c0.3,4.3-0.5,8.6-0.9,12.9c-0.8,7.8-0.2,15.6,2,23.1c-0.6,2.3,1.4,5.9-3,6.3c-0.4-1-0.7-2-1.1-3
		c-1.9-2.5-1.3-5.4-1.3-8.2c-0.1-5.1,0-10.3,0-15.4c-0.2-3.8,0.8-7.5,1.5-11.2C331.5,290.8,331.4,288.3,334.2,288.1z"/>
	<path class="st292" d="M521.1,399c-2.4-2.6-2.9-6.2-4.7-9.2c-3.6-5.9-8.5-10.6-13.4-15.3c-0.5-0.5-3.5-1.5,0-2.3
		c7.1,5.7,12.6,12.6,16.8,20.7c4.5,8.8,10.8,16.4,17.3,23.8c1.2,1.4,2.7,2.5,3.3,4.3c-0.5,0.1-0.9,0.2-1.4,0.4
		c-6.4-3.2-9.8-9.1-13.7-14.6C523.7,404.3,522.2,401.7,521.1,399z"/>
	<path class="st293" d="M521.1,399c5.7,7.7,10.9,15.8,18,22.4c1.5,3.4,6.4,6.2,2.2,10.7c-5.7-0.6-10.7,2.3-16.1,3
		c2.1-3.5,5.6-5.5,8.9-7.7c4.8-3.2,5.3-5,0.5-8C526.7,414.6,523.6,407,521.1,399z"/>
	<path class="st243" d="M432.9,297.3c0.1,2.6,0.3,5.3,0.1,7.9c-0.4,4.8,1.3,8.9,4.3,12.3c2,2.2,3.1,4.6,3.1,7.5c0.6,7,0.1,14-0.3,21
		c0.1,2.3,0.4,4.7-2.9,5c-2.4,5.4-4.7,1.5-7-0.1c-6-7.4-11-15.4-15.5-23.7c-1.3-2.3-1.5-4,0.2-6.2c5.9-7.8,11.6-15.8,17.3-23.7
		C432.5,296.9,432.7,296.9,432.9,297.3z"/>
	<path class="st294" d="M432.9,297.3c-0.2,0-0.4,0-0.6,0c-0.8-0.4-1.2-1.1-1.2-2c3.1-1.8,1.4-5.4,2.9-8.3c3.3,4.2,0.5,8.2,1,11.9
		C434.3,298.4,433.6,297.8,432.9,297.3z"/>
	<path class="st5" d="M273.1,338c-0.6,3.7-1.3,7.4-1.9,11.1c-3.2,3.2-4.4,7.4-5.5,11.5c-2,7.1-4.4,14.2-5.4,21.6
		c-1.2,4.1-2.5,8.2-3.8,12.3c-0.7,2.1-1.2,4.5-0.2,6.3c3,5.5,3.1,10.9-0.1,16.3c-0.3,1.8-0.4,3.7-1.1,5.3c-1.4,3.4-1.1,6.3,1.4,9.1
		c0.7,0.7,1.9,1.8,0.8,3c-0.8,0.9-2.2,0.6-3.3,0.2c-2.3-0.8-3.7-2.5-5.1-4.5c-3.5-5.4-5.5-11.2-4.7-17.8c4.3-12.1,5.4-24.8,7.7-37.3
		c2.6-9.9,6.5-19.6,7-30c3-21.1,5.5-42.3,5.4-63.7c1.3-5.8,2-11.9,5-17.2c1.7,4.4,0.2,9,0.5,13.6c0.5,7.9,1.8,15.4,4.9,22.7
		c1.7,4,2.3,8,1.1,12.5c-1.4,5.2-1.1,10.7-3.5,15.8C271.1,331.5,272.1,335,273.1,338z"/>
	<path class="st1" d="M276.2,255.1c1.3-0.3,2.6-0.6,3.8-0.8c2.7,1.6,5-0.2,7.4-1.1c1.7,0.2,3.3-0.4,4.8-0.9c2.3,2.8,5.9,3.2,8.9,4.7
		c-1.6,0.5-1.6,0.8,0.1,1.3c6.6,1.8,12.7-0.3,19-1.9c5.4-1.6,10.5-2.4,13.8,3.7c0.1,3.6,0.3,7.3,0.4,10.9c1.9,5,0.3,10-0.8,14.7
		c-1.2,4.8-2.1,9.7-3.1,14.6c-0.6,6.9-0.5,13.8-0.1,20.7c0.1,2.1,0.6,4.2-0.3,6.3c-0.7,1-1.5,1.9-2.9,2c-11.2,3.4-22.2,7.3-34.1,7.8
		c-2.9,0.3-5.3-1.5-8.1-2c-2-0.4-1.6-1.9-1.4-3.5c0.6-5.4,0.6-10.8,0.1-16.3c0.1-0.4,0.1-0.7,0.2-1.1c0.5-1.9,2.4-2.7,3.2-4.3
		c1.8-3.7,1.3-5.1-2.6-6.5c-1.3-0.5-2.4-1-3.3-2.1c-0.1-0.4-0.1-0.7-0.2-1.1c0.1-6-1-11.8-3.7-17.2c-0.8-1.6-0.5-3.2-1.2-4.8
		c0-5.8-0.4-11.6-1.9-17.1C273.6,258.2,277.4,257.5,276.2,255.1z"/>
	<path class="st295" d="M315.3,237.1c-0.7,5.4-1.3,10.8,1.9,15.7c0.2,3-2.2,2.8-4.1,3.1c1.1-4.7-0.2-9.4-0.3-14
		c-0.1-1.9-1.7-1.6-3.4-0.8c-2.7,1.2-5.9,2.7-7.2-1.9c3.1-0.5,6.7,1.2,9.2-2.1c0.4-0.7,0.7-1.6,1.8-1.2
		C313.5,236.9,314.4,237,315.3,237.1z"/>
	<path class="st296" d="M330,299.9c0.9-9.8,4.8-19,4.5-29c1.9-4-0.6-8.5,1.4-12.6c0.1,0.6,0.2,1.2,0.4,1.8c0.1,9.3,0.1,18.7-2,27.9
		c-2.3,4.7-2.5,9.8-3.1,14.9C328.6,302.7,330,301.1,330,299.9z"/>
	<path class="st297" d="M334.1,260c-4-3.5-8.7-4.3-13.8-3.7c3.3-1.8,6.4-3.8,10.6-1.6C333.3,256,334.6,257.3,334.1,260z"/>
	<path class="st298" d="M280.3,299c-0.3,0.3-0.7,0.7-1,1c-2.8-5.3-4.4-11-5.2-16.9c0.3-0.7,0.7-1.4,1-2c0,0,0.1,0,0.1,0
		C277.9,286.8,280.5,292.5,280.3,299z"/>
	<path class="st299" d="M439.1,453.9c-1.9-0.2-1.8-3.1-4-2.8c0-1.2,0-2.3,0-3.5c0-2.8,1.9-2.8,3.8-2.4c2,0.5,2.5,1.9,1.7,3.8
		c-0.5,1.4-1,2.8-1.5,4.1C439.2,453.4,439.1,453.7,439.1,453.9z"/>
	<path class="st300" d="M158.4,317.9c-5.2-0.5-9-3.9-13.1-6.5c-1.3-0.8-2.3-2.5-2-3.8c1.5-6.2-0.8-13,2.5-18.9
		c2.9-5.2,1.9-10.6,0.6-15.8c-1.3-5.5,1.4-10,3-14.8c0.1-0.4,0.6,0.7,0.9,1.2c-0.5,9.2-1.3,18.5-0.8,27.7
		c0.6,10.7,3.1,20.9,8.8,30.1C158.3,317.4,158.4,317.7,158.4,317.9z"/>
	<path class="st301" d="M459.9,449.4c-1.4-0.6-2.9-1.3-3.1-2.8c-0.1-1.1,1.1-1.5,2.1-1.3c1.1,0.3,2.8,0.3,2.4,2.2
		C461.2,448.3,461.5,449.7,459.9,449.4z"/>
	<path class="st302" d="M293,631.3c0.9,8.2,8.3,7.3,13.3,9.7c-3.9,1.4-7.3,0.1-10.6-1.9c-0.8-0.5-1.1-2.4-2.7-1.1
		c-1.3-1.1-1.3-2.7-1.7-4.1C291.9,633.1,292.5,632.2,293,631.3z"/>
	<path class="st303" d="M455.3,632c6.7,0.9,12-1.6,14.7-7c1.8,8.1-3.5,15.1-12.2,16.1c-0.8-1.7-1.6-3.4-2.5-5.1
		C455.4,634.7,455.3,633.4,455.3,632z"/>
	<path class="st304" d="M457.8,641.2c7.3-2.9,12.7-7.2,12.2-16.1c0.7-0.7,1.3-1.3,2-2c0,1.3,0,2.6,0,3.9c-1.4,3.5-1.6,7.5-4.2,10.5
		C465.2,640.4,462.6,643.9,457.8,641.2z"/>
	<path class="st305" d="M437.2,351.1c1.7-1.2,2.3-3.1,2.9-5c0.7-0.3,1.3-0.6,2-0.9c0.4,2-2.3,3.6-1,5.8c-0.7,0.7-1.3,1.3-2,2
		C438.2,352.6,437.4,352.2,437.2,351.1z"/>
	<path class="st306" d="M293.2,336.9c9.9-2.1,19.6-5,29.4-7.7c1.4-0.4,3.1-1.1,4.7-0.1c-0.2,0.3-0.3,0.6-0.3,0.9
		c-6.8,4.9-14.5,6.9-22.8,7.2C300.5,337.1,296.8,337,293.2,336.9z"/>
	<path class="st307" d="M330,299.9c0.3,1-0.1,2.3,1.1,3.1c0,8.1,0,16.2,0,24.3c-0.3-0.1-0.6-0.1-1-0.1c-0.6-7.3-1.4-14.6-1-22
		C329.3,303.4,328.8,301.5,330,299.9z"/>
	<path class="st308" d="M304.2,337.2c7.8-1.7,15.6-3.5,22.8-7.2c0.8,4.5-3.3,2.8-5,3.7c-5.9,3-12.3,4.2-18.8,5.3
		C303.5,338.4,303.8,337.8,304.2,337.2z"/>
	<path class="st309" d="M281.4,301.2c0.6,0.1,1.3,0.2,1.9,0.4c2.2,1,6.2,0.2,6.3,3.2c0.2,3.8-0.8,7.9-5.6,9.3
		C283.2,309.8,282.3,305.5,281.4,301.2z"/>
	<path class="st310" d="M280.3,299c-1.7-6-4.4-11.7-5.1-17.9c1.1-0.7,0.8-1.9,1.1-2.9c3.9,6.2,6.2,12.9,6.1,20.3
		c0,1.1-0.3,1.4-1.2,1.6C280.9,299.7,280.6,299.4,280.3,299z"/>
	<path class="st311" d="M156.1,204.1c-1.6-0.7-2-0.1-2,1.5c0.1,2.4-0.5,4.5-1.8,6.5c-1.5,1.7-1.4,4-2.3,6c-0.4,0.8-0.1,2.5-1.9,2
		c0.3-4.4-0.1-8.8,0.7-13.3c0.7-3.6-1.6-6.9-3.6-10c-1.8-2.9-3.6-5.8-5.5-8.7c-0.7-1.1,0-1.9,0.3-2.8c2.1,0.6,2.8,2.9,4.6,3.9
		c4.2,3.5,6.9,8.3,11,12C156.5,201.9,157.2,202.9,156.1,204.1z"/>
	<path class="st312" d="M127.1,223.3c0.4,0,0.8,0,1.2-0.1c3.1,3,7,3.4,11,3.9c0,1.5-1,1.4-2.1,1.3c5.2,0,6,1.3,4.8,6.7
		c-1-0.6-0.8-3-1.8-2.6c-3,1.3-5.4-0.9-8.1-0.8c-1.1,0-0.7,1.6-0.8,2.6c-0.4,4-0.7,7.9-1,11.9c-0.1,1.1-0.3,2.3-2.1,3.3
		c0.8-5.4-0.9-10.4-0.8-15.4c1-1.6,0-3.5,0.5-5.2c-0.4,1.4,0.4,3-0.7,4.3C125.1,229.8,126.3,226.6,127.1,223.3z"/>
	<path class="st313" d="M141.9,235.1c1.1-5.9-2.7-6.3-7.2-5.9c1.2-2.2,3.4-0.7,4.5-2.1c4.2-0.8,7.1-3.3,8.9-7.1
		c1.1-2.7,2.3-5.5,3.4-8.2c0-0.1,0.3-0.1,0.4,0c0.1,0,0.3,0.2,0.4,0.3c-0.7,3.7-1.8,7.3-3.4,10.8c-4.1,3.2-6.6,7.1-5.6,12.6
		c0.1,0.4-0.2,1.1-0.7,0.9C142.3,236.2,142.1,235.5,141.9,235.1z"/>
	<path class="st314" d="M124.1,263.3c-1.3-1.6-0.8-3.5-1.1-5.3c0-0.3,0.1-0.7,0-1c-1.2-2.6-0.3-7.9-3.3-7.3
		c-3.9,0.7-0.6,4.9-0.6,7.6c0,2.2-0.1,4.1-1.5,6.1c-1.3,1.9-3.3,4-1.5,6.8c-2.1-0.8-2.2-0.8-2-3.3c0.6-6.5,1.2-13,1.8-19.6
		c0.9-0.8,1.8-1.5,2.7-2.3c2.2-0.2,4.2-0.2,5.4,2.1C124.1,252.6,124.1,258,124.1,263.3z"/>
	<path class="st315" d="M129.1,258.1c0.2,0.1,0.3,0.1,0.5,0.2c6.4,5.5,6.4,5.5,11.6-1.2c1-0.3,1.3,0.3,1.5,1.1
		c-0.5,2.6-1.7,4.9-3.3,7c-3,4-5.4,4-9,0.1C129.6,263,127.5,260.9,129.1,258.1z"/>
	<path class="st316" d="M142.2,258.1c-0.4-0.3-0.7-0.7-1.1-1c2.9-4.7,3.2-10.6,6.9-15.1c1.3,1.4-0.1,2.2,0.1,3.1
		c-2.5,4.4-2.2,9.8-4.9,14.2C142.6,259.1,142.5,258.5,142.2,258.1z"/>
	<path class="st317" d="M129.1,258.1c-0.1,2.6,1.4,4.7,2,7.1c-0.2,0.4-0.5,0.8-1,0.9c-2.7-3.6-3.6-7.6-2.9-12.1
		C127.8,255.4,128.4,256.8,129.1,258.1z"/>
	<path class="st318" d="M127.1,233.1c0.5-1.8-0.6-3.8,0.8-6c0.5,2.6,1.6,4.8-0.6,6.9C127.3,233.7,127.2,233.4,127.1,233.1z"/>
	<path class="st319" d="M156.1,204.1c-2.8-5.8-8.4-9.4-11.4-14.9c0.5,0,0.9,0,1.4,0.1c5.1,5.2,9,11.5,15.9,15.5
		c-2.6,1.3-3.6-0.8-5-0.4C156.6,204.3,156.3,204.2,156.1,204.1z"/>
	<path class="st320" d="M153.9,252.4c0,0.9,0,1.7,0,2.6c-0.5,1.6-1.1,3.2-1.6,4.7c-0.1-2.2-0.2-4.5-0.2-6.7
		C152.2,251.4,153,251.5,153.9,252.4z"/>
	<path class="st321" d="M313.1,236c-0.6,0.4-1.2,0.8-1.8,1.2c-0.1-0.5-0.2-1.1-0.2-1.6c1.8-3.3,3.6-6.6,5.8-10.6
		C317,229.7,313.8,232.4,313.1,236z"/>
	<path class="st322" d="M130.1,266.1c0.3-0.3,0.7-0.6,1-0.9c2.9,3.8,5.5,2.8,7.8-0.6c1.3-2,2.3-4.4,3.4-6.5c0.4,0.4,0.7,0.8,1.1,1.2
		c-0.4,2.7-1.9,5-3.5,7C136.5,270.3,133.7,270.2,130.1,266.1z"/>
	<path class="st323" d="M306.6,623.9c-0.3,5.1-5.4,7.6-11.2,5.5C299.9,628.7,304,628.2,306.6,623.9z"/>
	<path class="st324" d="M254.2,430.8c-5-4.1-5.5-9-2.1-17.2C252.7,419.6,251.1,425.4,254.2,430.8z"/>
	<path class="st325" d="M298,293.9c1-1.3,2.1-2.9,3.9-2.8c7.2,0.4,14.7-1.8,21.8,2.8c-5,3-9.8,2.2-14.6,0.1c0-2.3,2-0.9,2.8-1.5
		c-3.1,0.1-6,1.3-9,1.9C301.3,294.6,299.5,295.8,298,293.9z"/>
	<path class="st326" d="M298,293.9c5.1,0.9,9.7-2.9,15.2-1.6c-1.2,1.3-3.3,0.2-4.2,1.7c-5.8,0.6-11.5,3.3-17.5,1.4
		c-1.1-0.3-2.3-0.2-3-1.9C291.8,292.9,294.9,294.9,298,293.9z"/>
</g>
</svg>
